<svg width="1960" height="576" viewBox="0 0 1960 576" fill="none" xmlns="http://www.w3.org/2000/svg">
<path d="M979.999 85C985.499 85 988.119 92.5 988.119 92.5L1166.27 481.5C1166.27 481.5 1168.22 487.093 1166 489C1163.77 490.907 1158.5 488.545 1158.5 488.545L979.999 416.417L798.499 489.757C798.499 489.757 793.999 491.257 792.499 489.757C790.999 488.257 793.266 482.5 793.266 482.5L971.88 92.5C971.88 92.5 974.499 85 979.999 85Z" fill="#16D0A3" fill-opacity="0.5"/>
<path fill-rule="evenodd" clip-rule="evenodd" d="M1158.5 488.545L979.999 416.417L798.499 489.757C798.499 489.757 793.999 491.257 792.499 489.757C790.999 488.257 793.266 482.5 793.266 482.5L971.88 92.5C971.88 92.5 974.499 85 979.999 85C985.499 85 988.119 92.5 988.119 92.5L1166.27 481.5C1166.27 481.5 1168.22 487.093 1166 489C1163.77 490.907 1158.5 488.545 1158.5 488.545ZM976.292 95.6423C976.292 95.6419 976.299 95.6492 976.312 95.6654C976.299 95.6507 976.292 95.6427 976.292 95.6423ZM979.999 103.59L1148.53 471.574L984.495 405.291C981.611 404.125 978.388 404.125 975.504 405.291L811.469 471.574L979.999 103.59ZM983.707 95.6423C983.707 95.6427 983.7 95.6507 983.687 95.6654C983.7 95.6493 983.706 95.642 983.707 95.6423Z" fill="#16D0A7"/>
<path d="M445.567 353H486.367L496.367 328H550.367L560.567 353H602.167L542.567 212H505.167L445.567 353ZM507.767 297.8L523.567 258L539.167 297.8H507.767ZM647.208 355.4C662.608 355.4 672.608 347.2 679.608 338.2V353H717.608V244.8H679.608V303.4C679.608 315.2 672.808 321.6 663.808 321.6C654.608 321.6 648.408 315.2 648.408 303.4V244.8H610.408V315.6C610.408 340.2 624.208 355.4 647.208 355.4ZM780.966 355.2C791.566 355.2 800.566 352.8 807.366 349V319.2C802.766 321.4 797.966 322.8 792.966 322.8C785.966 322.8 782.566 319.6 782.566 312V275.4H807.766V244.8H782.566V217.4H744.566V244.8H731.766V275.4H744.566V319.4C744.566 345.2 758.166 355.2 780.966 355.2ZM876.369 355.6C911.169 355.6 936.369 329.8 936.369 299V298.6C936.369 267.8 911.369 242.4 876.769 242.4C841.969 242.4 816.769 268.2 816.769 299V299.4C816.769 330.2 841.769 355.6 876.369 355.6ZM876.769 323.4C863.369 323.4 853.769 312.2 853.769 299V298.6C853.769 285.6 862.569 274.6 876.369 274.6C889.769 274.6 899.369 285.8 899.369 299V299.4C899.369 312.4 890.569 323.4 876.769 323.4ZM952.419 353H990.419V294.4C990.419 282.6 997.219 276.2 1006.42 276.2C1015.42 276.2 1021.62 282.6 1021.62 294.4V353H1059.62V282.2C1059.62 257.6 1045.82 242.4 1022.82 242.4C1007.42 242.4 997.419 251 990.419 260V244.8H952.419V353ZM1134.38 355.6C1169.18 355.6 1194.38 329.8 1194.38 299V298.6C1194.38 267.8 1169.38 242.4 1134.78 242.4C1099.98 242.4 1074.78 268.2 1074.78 299V299.4C1074.78 330.2 1099.78 355.6 1134.38 355.6ZM1134.78 323.4C1121.38 323.4 1111.78 312.2 1111.78 299V298.6C1111.78 285.6 1120.58 274.6 1134.38 274.6C1147.78 274.6 1157.38 285.8 1157.38 299V299.4C1157.38 312.4 1148.58 323.4 1134.78 323.4ZM1210.43 353H1248.43V294.2C1248.43 282.4 1254.83 276.2 1263.83 276.2C1272.83 276.2 1278.63 282.4 1278.63 294.2V353H1316.63V294.2C1316.63 282.4 1323.23 276.2 1332.23 276.2C1341.23 276.2 1347.03 282.4 1347.03 294.2V353H1385.03V282C1385.03 256.8 1371.03 242.4 1348.03 242.4C1332.23 242.4 1321.23 249.2 1311.83 260C1306.03 248.8 1295.03 242.4 1280.63 242.4C1265.43 242.4 1255.43 250.6 1248.43 259.6V244.8H1210.43V353ZM1433.64 385.6C1455.24 385.6 1465.44 375.6 1474.84 350.4L1514.44 244.8H1475.44L1455.04 310L1433.44 244.8H1393.64L1436.04 351C1433.64 354.4 1431.04 355.4 1427.24 355.4C1423.04 355.4 1416.64 353.2 1410.64 349.6L1398.84 376.2C1408.84 381.8 1420.24 385.6 1433.64 385.6Z" fill="white"/>
</svg>
