<svg width="1920" height="1080" viewBox="0 0 1920 1080" fill="none" xmlns="http://www.w3.org/2000/svg">
<g clip-path="url(#clip0)">
<g filter="url(#filter0_d)">
<path d="M158.532 200.329L1307.37 866.656L158.531 1521.5L-967.33 866.657L158.532 200.329Z" fill="#8B55FF" fill-opacity="0.5"/>
<path d="M-963.377 866.642L158.543 202.647L1303.36 866.641L158.541 1519.19L-963.377 866.642Z" stroke="#A174FF" stroke-opacity="0.75" stroke-width="4"/>
</g>
<g filter="url(#filter1_d)">
<path d="M154.376 259.868L1088.64 801.74L154.375 1334.27L-761.201 801.74L154.376 259.868Z" fill="#8B55FF" fill-opacity="0.5"/>
<path d="M-757.249 801.725L154.386 262.186L1084.63 801.725L154.385 1331.96L-757.249 801.725Z" stroke="#A174FF" stroke-opacity="0.75" stroke-width="4"/>
</g>
<g filter="url(#filter2_d)">
<path d="M152.298 380.027L318.052 476.164L-49.6391 688.624L-212.077 594.144L152.298 380.027Z" fill="#FFDE69" fill-opacity="0.5"/>
<path d="M-208.114 594.135L152.305 382.343L314.06 476.161L-49.6358 686.312L-208.114 594.135Z" stroke="#FFDE69" stroke-opacity="0.75" stroke-width="4"/>
</g>
<g filter="url(#filter3_d)">
<path d="M492.644 578.461L658.398 674.599L-42.9989 1076.5L-205.437 982.02L492.644 578.461Z" fill="#58F5FF" fill-opacity="0.5"/>
<path d="M-201.45 982.026L492.643 580.773L654.394 674.588L-42.9914 1074.19L-201.45 982.026Z" stroke="#58F5FF" stroke-opacity="0.75" stroke-width="4"/>
</g>
<g filter="url(#filter4_d)">
<path d="M322.693 479.304L488.447 575.441L-49.504 883L-211.942 788.521L322.693 479.304Z" fill="#58FFAF" fill-opacity="0.5"/>
<path d="M-207.956 788.525L322.692 481.615L484.439 575.428L-49.4955 880.692L-207.956 788.525Z" stroke="#58FFAF" stroke-opacity="0.75" stroke-width="4"/>
</g>
<path d="M437.088 732.287L445.87 727.217L441.055 702.077L460.471 718.787L469.253 713.717L460.262 670.064L449.817 676.094L455.628 700.799L436.403 683.7L427.726 688.71L432.921 713.909L414.432 696.524L403.779 702.674L437.088 732.287ZM495.515 699.109C501.127 695.869 503.704 691.332 504.426 686.343L496.36 684.972C495.474 688.117 494.113 690.08 491.775 691.43C488.709 693.2 485.575 692.931 483.025 690.316L501.835 679.456C501.497 678.75 501.077 678.023 500.717 677.399C495.947 669.137 487.369 664.599 477.652 670.209C469.338 675.009 467.216 684.894 471.956 693.104L472.016 693.208C477.056 701.937 486.682 704.209 495.515 699.109ZM479.959 685.365C478.709 682 479.306 678.953 481.904 677.453C484.606 675.893 487.564 676.818 489.728 679.725L479.959 685.365ZM531.467 678.283C538.118 674.443 540.676 665.553 535.396 656.408L535.336 656.304C530.146 647.314 521.168 645.084 514.465 648.954C510.256 651.384 509.036 654.791 508.463 658.239L500.633 644.677L490.761 650.377L512.661 688.309L522.533 682.609L520.553 679.18C523.602 680.26 527.206 680.743 531.467 678.283ZM523.631 671.791C520.462 673.621 516.385 672.441 514.225 668.7L514.165 668.596C512.035 664.906 513.052 660.786 516.221 658.956C519.443 657.096 523.519 658.276 525.649 661.966L525.709 662.07C527.899 665.863 526.853 669.931 523.631 671.791Z" fill="white"/>
<path d="M157.312 692.133L167.912 686.013L166.76 678.018L180.79 669.918L187.19 674.883L197.998 668.643L161.363 640.95L151.646 646.56L157.312 692.133ZM165.192 668.461L163.327 655.751L173.35 663.751L165.192 668.461ZM200.955 666.935L210.828 661.235L202.038 646.01C200.268 642.945 201.075 640.262 203.465 638.882C205.803 637.532 208.374 638.265 210.144 641.33L218.934 656.555L228.807 650.855L218.187 632.461C214.497 626.069 208.631 624.19 202.656 627.64C198.655 629.95 197.347 633.685 196.878 637.073L194.598 633.124L184.725 638.824L200.955 666.935ZM245.628 641.975C249.836 639.545 251.109 636.109 251.681 632.66L253.841 636.401L263.714 630.701L241.814 592.77L231.941 598.47L239.591 611.72C236.491 610.669 232.886 610.187 228.626 612.647C221.975 616.487 219.469 625.347 224.749 634.492L224.809 634.596C229.999 643.585 238.977 645.815 245.628 641.975ZM243.871 631.973C240.702 633.803 236.574 632.653 234.414 628.912L234.354 628.808C232.194 625.067 233.292 620.969 236.461 619.139C239.631 617.309 243.707 618.489 245.837 622.178L245.897 622.282C248.057 626.023 247.041 630.143 243.871 631.973ZM269.003 627.648L278.875 621.948L273.835 613.218C270.085 606.723 271.285 602.081 276.429 599.111L277.261 598.631L271.261 588.239C266.464 590.731 265.306 594.725 265.915 599.501L262.645 593.837L252.773 599.537L269.003 627.648ZM305.452 607.504C314.494 602.284 317.171 591.801 312.551 583.799L312.491 583.695C307.871 575.693 297.566 572.844 288.576 578.034C279.535 583.254 276.858 593.737 281.478 601.739L281.538 601.843C286.158 609.845 296.463 612.694 305.452 607.504ZM300.726 599.079C297.245 601.089 293.071 599.619 291.091 596.189L291.031 596.085C289.081 592.708 289.717 588.53 293.302 586.46C296.784 584.45 300.958 585.92 302.938 589.349L302.998 589.453C304.948 592.831 304.312 597.009 300.726 599.079ZM307.121 564.764L317.409 558.824L313.209 551.55L302.921 557.49L307.121 564.764ZM325.029 595.301L334.901 589.601L318.671 561.49L308.799 567.19L325.029 595.301ZM352.139 580.481C356.347 578.051 357.62 574.614 358.192 571.166L360.352 574.907L370.225 569.207L348.325 531.275L338.452 536.975L346.102 550.226C343.002 549.175 339.397 548.693 335.137 551.153C328.486 554.993 325.98 563.852 331.26 572.998L331.32 573.102C336.51 582.091 345.488 584.321 352.139 580.481ZM350.382 570.479C347.213 572.309 343.085 571.159 340.925 567.418L340.865 567.314C338.705 563.573 339.803 559.474 342.972 557.644C346.142 555.814 350.218 556.995 352.348 560.684L352.408 560.788C354.568 564.529 353.552 568.649 350.382 570.479Z" fill="white"/>
<path d="M84.95 491.125L95.2384 485.185L91.0384 477.911L80.75 483.851L84.95 491.125ZM102.858 521.663L112.731 515.963L96.5006 487.852L86.6279 493.552L102.858 521.663ZM137.51 502.626C148.734 496.146 152.262 482.816 146.232 472.372L146.172 472.268C140.142 461.824 126.998 458.258 115.774 464.738C104.551 471.218 101.023 484.548 107.053 494.992L107.113 495.096C113.143 505.54 126.287 509.106 137.51 502.626ZM132.364 493.473C126.856 496.653 120.423 494.27 117.393 489.022L117.333 488.918C114.303 483.67 115.412 477.071 120.92 473.891C126.48 470.681 132.913 473.064 135.943 478.312L136.003 478.416C139.033 483.664 137.924 490.263 132.364 493.473ZM176.378 480.047C185.212 474.947 188.534 467.14 184.244 459.71L184.184 459.606C180.254 452.799 173.497 453.097 164.082 456.108C158.381 457.875 156.714 457.868 155.754 456.205L155.694 456.101C154.944 454.802 155.539 453.073 157.982 451.663C161.203 449.803 165.561 448.95 170.236 449.368L171.166 439.339C165.387 438.45 159.595 439.577 153.411 443.147C144.682 448.187 142.15 456.161 146.05 462.916L146.11 463.02C150.43 470.503 157.665 469.235 166.428 466.532C172.024 464.825 173.699 464.966 174.569 466.473L174.629 466.577C175.529 468.136 174.614 469.911 171.912 471.471C167.703 473.901 162.832 474.704 157.597 473.916L155.855 483.859C162.634 485.281 169.935 483.767 176.378 480.047Z" fill="white"/>
<path opacity="0.5" d="M829 619L980.971 504H1110" stroke="white" stroke-width="4" stroke-linecap="round" stroke-dasharray="20 20"/>
<path d="M488.029 479L640 364H1110" stroke="white" stroke-width="4" stroke-linecap="round" stroke-dasharray="20 20"/>
<path opacity="0.5" d="M1201.2 462H1150.9V532H1158.8V501.5H1196.7V494.3H1158.8V469.3H1201.2V462ZM1264.46 506.1C1264.46 491.4 1253.06 479.2 1237.56 479.2C1221.96 479.2 1210.56 491.6 1210.56 506.3C1210.56 521 1221.86 533.2 1237.36 533.2C1252.96 533.2 1264.46 520.8 1264.46 506.1ZM1256.56 506.3C1256.56 517.4 1248.76 526.3 1237.56 526.3C1226.66 526.3 1218.46 517.3 1218.46 506.1C1218.46 494.9 1226.16 486 1237.36 486C1248.26 486 1256.56 495 1256.56 506.3ZM1315.11 509.9C1315.11 519.6 1308.41 526.1 1299.61 526.1C1290.51 526.1 1285.31 520.1 1285.31 510.5V480.3H1277.61V512.4C1277.61 524.7 1284.91 533.1 1297.41 533.1C1306.31 533.1 1311.61 528.6 1315.11 523V532H1322.71V480.3H1315.11V509.9ZM1347.73 502.4C1347.73 492.7 1354.33 486.2 1363.23 486.2C1372.33 486.2 1377.53 492.2 1377.53 501.8V532H1385.23V499.9C1385.23 487.6 1377.93 479.2 1365.43 479.2C1356.53 479.2 1351.13 483.7 1347.73 489.3V480.3H1340.03V532H1347.73V502.4ZM1450.85 532V459H1443.15V490.2C1439.15 484.4 1432.95 479.2 1423.35 479.2C1410.95 479.2 1398.65 489.2 1398.65 506.2C1398.65 523.3 1410.95 533.1 1423.35 533.1C1432.85 533.1 1438.95 527.8 1443.15 521.6V532H1450.85ZM1443.45 506.1C1443.45 518.2 1434.35 526.2 1424.75 526.2C1414.95 526.2 1406.55 518.4 1406.55 506.1C1406.55 493.5 1414.75 486.1 1424.75 486.1C1434.35 486.1 1443.45 494.1 1443.45 506.1ZM1486.76 486.4C1496.46 486.4 1502.16 491.2 1502.16 500.5V502.3C1497.56 501 1492.86 500.1 1486.26 500.1C1473.16 500.1 1464.16 505.9 1464.16 516.9C1464.16 527.7 1473.86 533.1 1483.46 533.1C1492.56 533.1 1498.56 528.9 1502.16 524.2V532H1509.56V500.4C1509.56 486.8 1501.66 479.6 1487.56 479.6C1480.06 479.6 1474.46 481.3 1468.76 483.9L1471.06 490.2C1475.86 488 1480.66 486.4 1486.76 486.4ZM1487.06 505.8C1493.36 505.8 1498.46 506.9 1502.26 508V513C1502.26 521.2 1494.46 527 1484.96 527C1477.96 527 1471.96 523.2 1471.96 516.6C1471.96 510 1477.36 505.8 1487.06 505.8ZM1535.88 487.1H1552.28V480.3H1535.88V464.7H1528.18V480.3H1520.98V487.1H1528.18V518.3C1528.18 528.8 1534.48 532.9 1542.78 532.9C1546.48 532.9 1549.38 532.1 1552.08 530.7V524.1C1549.38 525.4 1547.18 525.9 1544.58 525.9C1539.38 525.9 1535.88 523.6 1535.88 517.3V487.1ZM1574.91 469V460.5H1566.11V469H1574.91ZM1574.31 532V480.3H1566.61V532H1574.31ZM1642.88 506.1C1642.88 491.4 1631.48 479.2 1615.98 479.2C1600.38 479.2 1588.98 491.6 1588.98 506.3C1588.98 521 1600.28 533.2 1615.78 533.2C1631.38 533.2 1642.88 520.8 1642.88 506.1ZM1634.98 506.3C1634.98 517.4 1627.18 526.3 1615.98 526.3C1605.08 526.3 1596.88 517.3 1596.88 506.1C1596.88 494.9 1604.58 486 1615.78 486C1626.68 486 1634.98 495 1634.98 506.3ZM1664.53 502.4C1664.53 492.7 1671.13 486.2 1680.03 486.2C1689.13 486.2 1694.33 492.2 1694.33 501.8V532H1702.03V499.9C1702.03 487.6 1694.73 479.2 1682.23 479.2C1673.33 479.2 1667.93 483.7 1664.53 489.3V480.3H1656.83V532H1664.53V502.4ZM1753.95 517.5V517.3C1753.95 508 1745.35 504.9 1737.35 502.5C1730.45 500.4 1724.05 498.5 1724.05 493.6V493.4C1724.05 489.1 1727.95 485.9 1734.05 485.9C1739.05 485.9 1744.55 487.8 1749.35 490.9L1752.85 485.1C1747.55 481.6 1740.55 479.4 1734.25 479.4C1724.05 479.4 1716.65 485.3 1716.65 494.2V494.4C1716.65 503.9 1725.65 506.7 1733.75 509C1740.55 510.9 1746.65 512.9 1746.65 518.1V518.3C1746.65 523.3 1742.15 526.5 1735.95 526.5C1729.85 526.5 1723.65 524.1 1718.05 519.9L1714.15 525.4C1719.95 530.1 1728.15 533 1735.55 533C1745.85 533 1753.95 527.3 1753.95 517.5Z" fill="white"/>
<path d="M1212.4 369.9C1212.4 350.1 1197.2 335 1175.2 335H1150.9V405H1175.2C1197.2 405 1212.4 389.7 1212.4 369.9ZM1204.2 370.1C1204.2 385.7 1192.9 397.7 1175.2 397.7H1158.8V342.3H1175.2C1192.9 342.3 1204.2 354.5 1204.2 370.1ZM1232.42 382H1273.42C1273.52 381.1 1273.52 380.3 1273.52 379.6C1273.52 364.4 1264.72 352.2 1249.42 352.2C1235.12 352.2 1224.62 364.2 1224.62 379.2C1224.62 395.3 1236.22 406.2 1250.42 406.2C1260.22 406.2 1266.52 402.3 1271.72 396.5L1266.92 392.2C1262.72 396.6 1257.72 399.5 1250.62 399.5C1241.52 399.5 1233.52 393.2 1232.42 382ZM1232.42 376.3C1233.42 366.2 1240.22 358.7 1249.22 358.7C1259.52 358.7 1264.92 366.9 1265.72 376.3H1232.42ZM1322.5 390.5V390.3C1322.5 381 1313.9 377.9 1305.9 375.5C1299 373.4 1292.6 371.5 1292.6 366.6V366.4C1292.6 362.1 1296.5 358.9 1302.6 358.9C1307.6 358.9 1313.1 360.8 1317.9 363.9L1321.4 358.1C1316.1 354.6 1309.1 352.4 1302.8 352.4C1292.6 352.4 1285.2 358.3 1285.2 367.2V367.4C1285.2 376.9 1294.2 379.7 1302.3 382C1309.1 383.9 1315.2 385.9 1315.2 391.1V391.3C1315.2 396.3 1310.7 399.5 1304.5 399.5C1298.4 399.5 1292.2 397.1 1286.6 392.9L1282.7 398.4C1288.5 403.1 1296.7 406 1304.1 406C1314.4 406 1322.5 400.3 1322.5 390.5ZM1345.81 342V333.5H1337.01V342H1345.81ZM1345.21 405V353.3H1337.51V405H1345.21ZM1412.28 396V353.3H1404.58V362.6C1400.38 357 1394.08 352.2 1384.38 352.2C1372.08 352.2 1360.08 361.5 1360.08 376.7C1360.08 391.8 1371.98 401 1384.38 401C1393.88 401 1400.18 396.1 1404.68 390.1V396.2C1404.68 408.3 1397.28 414.6 1385.88 414.6C1378.48 414.6 1371.88 412.3 1365.98 408L1362.48 414C1369.38 418.8 1377.38 421.2 1385.98 421.2C1401.88 421.2 1412.28 412.7 1412.28 396ZM1404.88 376.6C1404.88 387.2 1395.68 394.2 1385.88 394.2C1376.28 394.2 1367.98 387.1 1367.98 376.5C1367.98 365.7 1376.08 359 1385.88 359C1395.68 359 1404.88 365.9 1404.88 376.6ZM1437.18 375.4C1437.18 365.7 1443.78 359.2 1452.68 359.2C1461.78 359.2 1466.98 365.2 1466.98 374.8V405H1474.68V372.9C1474.68 360.6 1467.38 352.2 1454.88 352.2C1445.98 352.2 1440.58 356.7 1437.18 362.3V353.3H1429.48V405H1437.18V375.4ZM1531.48 360.1H1547.88V353.3H1531.48V337.7H1523.78V353.3H1516.58V360.1H1523.78V391.3C1523.78 401.8 1530.08 405.9 1538.38 405.9C1542.08 405.9 1544.98 405.1 1547.68 403.7V397.1C1544.98 398.4 1542.78 398.9 1540.18 398.9C1534.98 398.9 1531.48 396.6 1531.48 390.3V360.1ZM1610.75 379.1C1610.75 364.4 1599.35 352.2 1583.85 352.2C1568.25 352.2 1556.85 364.6 1556.85 379.3C1556.85 394 1568.15 406.2 1583.65 406.2C1599.25 406.2 1610.75 393.8 1610.75 379.1ZM1602.85 379.3C1602.85 390.4 1595.05 399.3 1583.85 399.3C1572.95 399.3 1564.75 390.3 1564.75 379.1C1564.75 367.9 1572.45 359 1583.65 359C1594.55 359 1602.85 368 1602.85 379.3ZM1648.2 375.5L1669.9 353.3H1660.3L1632.4 382.4V332H1624.7V405H1632.4V391.5L1642.9 380.9L1661.4 405H1670.6L1648.2 375.5ZM1683.69 382H1724.69C1724.79 381.1 1724.79 380.3 1724.79 379.6C1724.79 364.4 1715.99 352.2 1700.69 352.2C1686.39 352.2 1675.89 364.2 1675.89 379.2C1675.89 395.3 1687.49 406.2 1701.69 406.2C1711.49 406.2 1717.79 402.3 1722.99 396.5L1718.19 392.2C1713.99 396.6 1708.99 399.5 1701.89 399.5C1692.79 399.5 1684.79 393.2 1683.69 382ZM1683.69 376.3C1684.69 366.2 1691.49 358.7 1700.49 358.7C1710.79 358.7 1716.19 366.9 1716.99 376.3H1683.69ZM1745.97 375.4C1745.97 365.7 1752.57 359.2 1761.47 359.2C1770.57 359.2 1775.77 365.2 1775.77 374.8V405H1783.47V372.9C1783.47 360.6 1776.17 352.2 1763.67 352.2C1754.77 352.2 1749.37 356.7 1745.97 362.3V353.3H1738.27V405H1745.97V375.4ZM1835.39 390.5V390.3C1835.39 381 1826.79 377.9 1818.79 375.5C1811.89 373.4 1805.49 371.5 1805.49 366.6V366.4C1805.49 362.1 1809.39 358.9 1815.49 358.9C1820.49 358.9 1825.99 360.8 1830.79 363.9L1834.29 358.1C1828.99 354.6 1821.99 352.4 1815.69 352.4C1805.49 352.4 1798.09 358.3 1798.09 367.2V367.4C1798.09 376.9 1807.09 379.7 1815.19 382C1821.99 383.9 1828.09 385.9 1828.09 391.1V391.3C1828.09 396.3 1823.59 399.5 1817.39 399.5C1811.29 399.5 1805.09 397.1 1799.49 392.9L1795.59 398.4C1801.39 403.1 1809.59 406 1816.99 406C1827.29 406 1835.39 400.3 1835.39 390.5Z" fill="white"/>
</g>
<defs>
<filter id="filter0_d" x="-987.33" y="-218.999" width="2314.7" height="2175.31" filterUnits="userSpaceOnUse" color-interpolation-filters="sRGB">
<feFlood flood-opacity="0" result="BackgroundImageFix"/>
<feColorMatrix in="SourceAlpha" type="matrix" values="0 0 0 0 0 0 0 0 0 0 0 0 0 0 0 0 0 0 127 0"/>
<feOffset dy="2"/>
<feGaussianBlur stdDeviation="10"/>
<feColorMatrix type="matrix" values="0 0 0 0 0 0 0 0 0 0 0 0 0 0 0 0 0 0 0.5 0"/>
<feBlend mode="normal" in2="BackgroundImageFix" result="effect1_dropShadow"/>
<feBlend mode="normal" in="SourceGraphic" in2="effect1_dropShadow" result="shape"/>
</filter>
<filter id="filter1_d" x="-781.201" y="-84.5016" width="1889.84" height="1776.48" filterUnits="userSpaceOnUse" color-interpolation-filters="sRGB">
<feFlood flood-opacity="0" result="BackgroundImageFix"/>
<feColorMatrix in="SourceAlpha" type="matrix" values="0 0 0 0 0 0 0 0 0 0 0 0 0 0 0 0 0 0 127 0"/>
<feOffset dy="2"/>
<feGaussianBlur stdDeviation="10"/>
<feColorMatrix type="matrix" values="0 0 0 0 0 0 0 0 0 0 0 0 0 0 0 0 0 0 0.5 0"/>
<feBlend mode="normal" in2="BackgroundImageFix" result="effect1_dropShadow"/>
<feBlend mode="normal" in="SourceGraphic" in2="effect1_dropShadow" result="shape"/>
</filter>
<filter id="filter2_d" x="-232.077" y="248" width="570.129" height="578.308" filterUnits="userSpaceOnUse" color-interpolation-filters="sRGB">
<feFlood flood-opacity="0" result="BackgroundImageFix"/>
<feColorMatrix in="SourceAlpha" type="matrix" values="0 0 0 0 0 0 0 0 0 0 0 0 0 0 0 0 0 0 127 0"/>
<feOffset dy="2"/>
<feGaussianBlur stdDeviation="10"/>
<feColorMatrix type="matrix" values="0 0 0 0 0 0 0 0 0 0 0 0 0 0 0 0 0 0 0.5 0"/>
<feBlend mode="normal" in2="BackgroundImageFix" result="effect1_dropShadow"/>
<feBlend mode="normal" in="SourceGraphic" in2="effect1_dropShadow" result="shape"/>
</filter>
<filter id="filter3_d" x="-225.437" y="351.879" width="903.835" height="956.862" filterUnits="userSpaceOnUse" color-interpolation-filters="sRGB">
<feFlood flood-opacity="0" result="BackgroundImageFix"/>
<feColorMatrix in="SourceAlpha" type="matrix" values="0 0 0 0 0 0 0 0 0 0 0 0 0 0 0 0 0 0 127 0"/>
<feOffset dy="2"/>
<feGaussianBlur stdDeviation="10"/>
<feColorMatrix type="matrix" values="0 0 0 0 0 0 0 0 0 0 0 0 0 0 0 0 0 0 0.5 0"/>
<feBlend mode="normal" in2="BackgroundImageFix" result="effect1_dropShadow"/>
<feBlend mode="normal" in="SourceGraphic" in2="effect1_dropShadow" result="shape"/>
</filter>
<filter id="filter4_d" x="-231.942" y="298.524" width="740.389" height="770.914" filterUnits="userSpaceOnUse" color-interpolation-filters="sRGB">
<feFlood flood-opacity="0" result="BackgroundImageFix"/>
<feColorMatrix in="SourceAlpha" type="matrix" values="0 0 0 0 0 0 0 0 0 0 0 0 0 0 0 0 0 0 127 0"/>
<feOffset dy="2"/>
<feGaussianBlur stdDeviation="10"/>
<feColorMatrix type="matrix" values="0 0 0 0 0 0 0 0 0 0 0 0 0 0 0 0 0 0 0.5 0"/>
<feBlend mode="normal" in2="BackgroundImageFix" result="effect1_dropShadow"/>
<feBlend mode="normal" in="SourceGraphic" in2="effect1_dropShadow" result="shape"/>
</filter>
<clipPath id="clip0">
<rect width="1920" height="1080" fill="white"/>
</clipPath>
</defs>
</svg>
