<svg width="1920" height="1080" viewBox="0 0 1920 1080" fill="none" xmlns="http://www.w3.org/2000/svg">
<g clip-path="url(#clip0)">
<path d="M1126 502C1126 524.558 1115.7 556.619 1099.78 592.486C1083.93 628.192 1062.76 667.112 1041.55 703.18C1020.35 739.236 999.136 772.373 983.223 796.501C975.268 808.563 968.64 818.369 964.002 825.157C962.431 827.456 961.088 829.409 960 830.986C958.912 829.409 957.569 827.456 955.998 825.157C951.36 818.369 944.732 808.563 936.777 796.501C920.864 772.373 899.653 739.236 878.448 703.18C857.235 667.112 836.069 628.192 820.218 592.486C804.296 556.619 794 524.558 794 502C794 456.093 812.631 409.501 842.824 374.4C873.011 339.307 914.475 316 960 316C1005.53 316 1046.99 339.307 1077.18 374.4C1107.37 409.501 1126 456.093 1126 502Z" fill="#FF0A70" fill-opacity="0.5" stroke="#FF0A70" stroke-width="8"/>
<circle cx="960" cy="466" r="44" fill="#FF0A70" fill-opacity="0.75"/>
<g filter="url(#filter0_d)">
<path d="M341.834 516H379.834V436L415.434 490.4H416.234L452.034 435.6V516H490.634V376H449.634L416.234 430.2L382.834 376H341.834V516ZM566.866 518.6C588.466 518.6 603.466 509.8 613.866 496.6L592.866 479.2C585.066 486.8 577.866 490.2 568.866 490.2C557.066 490.2 548.466 484.2 545.466 472.4H617.866C618.066 469.8 618.066 467 618.066 464.6C618.066 432.8 600.866 405.4 563.466 405.4C531.466 405.4 508.866 430.4 508.866 462V462.4C508.866 496 532.866 518.6 566.866 518.6ZM544.866 453C546.866 441.2 553.666 433.4 563.666 433.4C574.066 433.4 581.066 441 582.466 453H544.866ZM687.96 518.6C709.56 518.6 724.56 509.8 734.96 496.6L713.96 479.2C706.16 486.8 698.96 490.2 689.96 490.2C678.16 490.2 669.56 484.2 666.56 472.4H738.96C739.16 469.8 739.16 467 739.16 464.6C739.16 432.8 721.96 405.4 684.56 405.4C652.56 405.4 629.96 430.4 629.96 462V462.4C629.96 496 653.96 518.6 687.96 518.6ZM665.96 453C667.96 441.2 674.76 433.4 684.76 433.4C695.16 433.4 702.16 441 703.56 453H665.96ZM798.454 518.2C809.054 518.2 818.054 515.8 824.854 512V482.2C820.254 484.4 815.454 485.8 810.454 485.8C803.454 485.8 800.054 482.6 800.054 475V438.4H825.254V407.8H800.054V380.4H762.054V407.8H749.254V438.4H762.054V482.4C762.054 508.2 775.654 518.2 798.454 518.2ZM897.055 548H935.055V502.8C942.055 511 951.655 518.4 968.055 518.4C993.655 518.4 1015.86 497 1015.86 461.8V461.4C1015.86 426.8 993.655 405.4 967.855 405.4C951.655 405.4 942.455 413.2 935.055 422.2V407.8H897.055V548ZM956.255 486.6C944.055 486.6 934.255 476.4 934.255 462V461.6C934.255 447.4 944.055 437.2 956.255 437.2C968.655 437.2 978.455 447.4 978.455 461.6V462C978.455 476.6 968.655 486.6 956.255 486.6ZM1085.81 518.6C1107.41 518.6 1122.41 509.8 1132.81 496.6L1111.81 479.2C1104.01 486.8 1096.81 490.2 1087.81 490.2C1076.01 490.2 1067.41 484.2 1064.41 472.4H1136.81C1137.01 469.8 1137.01 467 1137.01 464.6C1137.01 432.8 1119.81 405.4 1082.41 405.4C1050.41 405.4 1027.81 430.4 1027.81 462V462.4C1027.81 496 1051.81 518.6 1085.81 518.6ZM1063.81 453C1065.81 441.2 1072.61 433.4 1082.61 433.4C1093.01 433.4 1100.01 441 1101.41 453H1063.81ZM1208.51 518.6C1243.31 518.6 1268.51 492.8 1268.51 462V461.6C1268.51 430.8 1243.51 405.4 1208.91 405.4C1174.11 405.4 1148.91 431.2 1148.91 462V462.4C1148.91 493.2 1173.91 518.6 1208.51 518.6ZM1208.91 486.4C1195.51 486.4 1185.91 475.2 1185.91 462V461.6C1185.91 448.6 1194.71 437.6 1208.51 437.6C1221.91 437.6 1231.51 448.8 1231.51 462V462.4C1231.51 475.4 1222.71 486.4 1208.91 486.4ZM1284.56 548H1322.56V502.8C1329.56 511 1339.16 518.4 1355.56 518.4C1381.16 518.4 1403.36 497 1403.36 461.8V461.4C1403.36 426.8 1381.16 405.4 1355.36 405.4C1339.16 405.4 1329.96 413.2 1322.56 422.2V407.8H1284.56V548ZM1343.76 486.6C1331.56 486.6 1321.76 476.4 1321.76 462V461.6C1321.76 447.4 1331.56 437.2 1343.76 437.2C1356.16 437.2 1365.96 447.4 1365.96 461.6V462C1365.96 476.6 1356.16 486.6 1343.76 486.6ZM1420.51 516H1458.51V370H1420.51V516ZM1533.27 518.6C1554.87 518.6 1569.87 509.8 1580.27 496.6L1559.27 479.2C1551.47 486.8 1544.27 490.2 1535.27 490.2C1523.47 490.2 1514.87 484.2 1511.87 472.4H1584.27C1584.47 469.8 1584.47 467 1584.47 464.6C1584.47 432.8 1567.27 405.4 1529.87 405.4C1497.87 405.4 1475.27 430.4 1475.27 462V462.4C1475.27 496 1499.27 518.6 1533.27 518.6ZM1511.27 453C1513.27 441.2 1520.07 433.4 1530.07 433.4C1540.47 433.4 1547.47 441 1548.87 453H1511.27ZM238.271 738.8H270.871L288.871 682.6L306.471 738.8H339.271L372.671 629.8H336.071L321.471 684.6L304.671 629.4H273.271L256.671 684.2L242.471 629.8H205.271L238.271 738.8ZM385.337 738H423.337V679.4C423.337 667.6 430.137 661.2 439.337 661.2C448.337 661.2 454.537 667.6 454.537 679.4V738H492.537V667.2C492.537 642.6 478.737 627.4 455.737 627.4C440.337 627.4 430.337 635.6 423.337 644.6V592H385.337V738ZM565.695 740.6C587.295 740.6 602.295 731.8 612.695 718.6L591.695 701.2C583.895 708.8 576.695 712.2 567.695 712.2C555.895 712.2 547.295 706.2 544.295 694.4H616.695C616.895 691.8 616.895 689 616.895 686.6C616.895 654.8 599.695 627.4 562.295 627.4C530.295 627.4 507.695 652.4 507.695 684V684.4C507.695 718 531.695 740.6 565.695 740.6ZM543.695 675C545.695 663.2 552.495 655.4 562.495 655.4C572.895 655.4 579.895 663 581.295 675H543.695ZM633.188 738H671.188V704.4C671.188 679.4 682.388 668 702.188 668H705.388V628C687.388 627.2 677.388 636.8 671.188 651.6V629.8H633.188V738ZM770.382 740.6C791.982 740.6 806.982 731.8 817.382 718.6L796.382 701.2C788.582 708.8 781.382 712.2 772.382 712.2C760.582 712.2 751.982 706.2 748.982 694.4H821.382C821.582 691.8 821.582 689 821.582 686.6C821.582 654.8 804.382 627.4 766.982 627.4C734.982 627.4 712.382 652.4 712.382 684V684.4C712.382 718 736.382 740.6 770.382 740.6ZM748.382 675C750.382 663.2 757.182 655.4 767.182 655.4C777.582 655.4 784.582 663 785.982 675H748.382ZM936.345 740.2C946.945 740.2 955.945 737.8 962.745 734V704.2C958.145 706.4 953.345 707.8 948.345 707.8C941.345 707.8 937.945 704.6 937.945 697V660.4H963.145V629.8H937.945V602.4H899.945V629.8H887.145V660.4H899.945V704.4C899.945 730.2 913.545 740.2 936.345 740.2ZM979.477 738H1017.48V679.4C1017.48 667.6 1024.28 661.2 1033.48 661.2C1042.48 661.2 1048.68 667.6 1048.68 679.4V738H1086.68V667.2C1086.68 642.6 1072.88 627.4 1049.88 627.4C1034.48 627.4 1024.48 635.6 1017.48 644.6V592H979.477V738ZM1159.84 740.6C1181.44 740.6 1196.44 731.8 1206.84 718.6L1185.84 701.2C1178.04 708.8 1170.84 712.2 1161.84 712.2C1150.04 712.2 1141.44 706.2 1138.44 694.4H1210.84C1211.04 691.8 1211.04 689 1211.04 686.6C1211.04 654.8 1193.84 627.4 1156.44 627.4C1124.44 627.4 1101.84 652.4 1101.84 684V684.4C1101.84 718 1125.84 740.6 1159.84 740.6ZM1137.84 675C1139.84 663.2 1146.64 655.4 1156.64 655.4C1167.04 655.4 1174.04 663 1175.44 675H1137.84ZM1254.25 770.6C1275.85 770.6 1286.05 760.6 1295.45 735.4L1335.05 629.8H1296.05L1275.65 695L1254.05 629.8H1214.25L1256.65 736C1254.25 739.4 1251.65 740.4 1247.85 740.4C1243.65 740.4 1237.25 738.2 1231.25 734.6L1219.45 761.2C1229.45 766.8 1240.85 770.6 1254.25 770.6ZM1433.91 740.4C1448.11 740.4 1458.31 735 1465.71 726.8V738H1503.31V675.8C1503.31 660.6 1499.91 649.4 1491.71 641.4C1483.11 632.8 1469.91 628.2 1450.51 628.2C1431.91 628.2 1418.91 631.6 1406.71 636.6L1414.51 663.4C1424.11 659.6 1432.91 657.4 1444.31 657.4C1458.91 657.4 1465.91 663.8 1465.91 675V676.8C1459.71 674.6 1449.91 672.6 1439.91 672.6C1414.51 672.6 1397.51 684.2 1397.51 706.6V707C1397.51 728.6 1413.31 740.4 1433.91 740.4ZM1447.51 716.6C1439.71 716.6 1434.11 712.2 1434.11 704.8V704.4C1434.11 696.4 1440.51 691 1451.51 691C1457.11 691 1462.51 692.2 1466.31 693.8V698.8C1466.31 709.6 1458.51 716.6 1447.51 716.6ZM1522.64 738H1560.64V704.4C1560.64 679.4 1571.84 668 1591.64 668H1594.84V628C1576.84 627.2 1566.84 636.8 1560.64 651.6V629.8H1522.64V738ZM1659.84 740.6C1681.44 740.6 1696.44 731.8 1706.84 718.6L1685.84 701.2C1678.04 708.8 1670.84 712.2 1661.84 712.2C1650.04 712.2 1641.44 706.2 1638.44 694.4H1710.84C1711.04 691.8 1711.04 689 1711.04 686.6C1711.04 654.8 1693.84 627.4 1656.44 627.4C1624.44 627.4 1601.84 652.4 1601.84 684V684.4C1601.84 718 1625.84 740.6 1659.84 740.6ZM1637.84 675C1639.84 663.2 1646.64 655.4 1656.64 655.4C1667.04 655.4 1674.04 663 1675.44 675H1637.84Z" fill="white"/>
</g>
</g>
<defs>
<filter id="filter0_d" x="195.271" y="362" width="1525.76" height="420.6" filterUnits="userSpaceOnUse" color-interpolation-filters="sRGB">
<feFlood flood-opacity="0" result="BackgroundImageFix"/>
<feColorMatrix in="SourceAlpha" type="matrix" values="0 0 0 0 0 0 0 0 0 0 0 0 0 0 0 0 0 0 127 0"/>
<feOffset dy="2"/>
<feGaussianBlur stdDeviation="5"/>
<feColorMatrix type="matrix" values="0 0 0 0 0 0 0 0 0 0 0 0 0 0 0 0 0 0 0.35 0"/>
<feBlend mode="normal" in2="BackgroundImageFix" result="effect1_dropShadow"/>
<feBlend mode="normal" in="SourceGraphic" in2="effect1_dropShadow" result="shape"/>
</filter>
<clipPath id="clip0">
<rect width="1920" height="1080" fill="white"/>
</clipPath>
</defs>
</svg>
