<svg width="1920" height="1080" viewBox="0 0 1920 1080" fill="none" xmlns="http://www.w3.org/2000/svg">
<g opacity="0.75">
<line x1="577" y1="538.487" x2="1344" y2="538.487" stroke="white" stroke-opacity="0.75" stroke-width="4" stroke-linecap="round"/>
<path fill-rule="evenodd" clip-rule="evenodd" d="M959.529 539.625C959.398 540.122 959.076 540.568 958.596 540.845C957.639 541.397 956.416 541.07 955.864 540.113L765.114 209.724C764.562 208.768 764.889 207.545 765.846 206.992C766.803 206.44 768.026 206.768 768.578 207.724L958.525 536.722L1149.26 206.366C1149.81 205.41 1151.03 205.082 1151.99 205.634C1152.95 206.186 1153.27 207.41 1152.72 208.366L961.971 538.755C961.473 539.617 960.431 539.968 959.529 539.625Z" fill="white" fill-opacity="0.75"/>
<path fill-rule="evenodd" clip-rule="evenodd" d="M958.186 540.955C958.317 540.458 958.639 540.012 959.119 539.735C960.075 539.183 961.299 539.51 961.851 540.467L1152.6 870.856C1153.15 871.812 1152.83 873.035 1151.87 873.588C1150.91 874.14 1149.69 873.812 1149.14 872.856L959.19 543.858L768.458 874.214C767.906 875.17 766.683 875.498 765.726 874.946C764.77 874.393 764.442 873.17 764.994 872.214L955.744 541.825C956.242 540.963 957.284 540.612 958.186 540.955Z" fill="white" fill-opacity="0.75"/>
</g>
<path d="M874.025 394.717C874.052 394.702 874.078 394.685 874.104 394.668L1150.35 211.828L1343.62 537.908L1132.68 837.978L906.358 628.532C906.15 628.339 905.904 628.193 905.635 628.103L634.766 537.485L874.025 394.717Z" fill="#0070D2" fill-opacity="0.25" stroke="#0070D2" stroke-width="4" stroke-linecap="round" stroke-linejoin="round"/>
<path d="M766.932 213.666L1010.62 447.443C1010.77 447.591 1010.95 447.713 1011.14 447.805L1205.64 540.611L1051.89 700.274L820.817 782.586L663.193 539.705L766.932 213.666Z" fill="#1DB954" fill-opacity="0.25" stroke="#1DB954" stroke-width="4" stroke-linecap="round" stroke-linejoin="round"/>
<path d="M876.032 396.761L999.996 468.73C1000.14 468.815 1000.3 468.882 1000.46 468.927L1251.82 538.714L1096.32 774.401L886.371 666.456L799.338 537.412L876.032 396.761Z" fill="#FF9900" fill-opacity="0.25" stroke="#FF9900" stroke-width="4" stroke-linecap="round" stroke-linejoin="round"/>
<path d="M694.568 151.92C694.568 146.36 690.408 143 684.088 143H673.608V171H676.768V161.12H683.568C689.528 161.12 694.568 158 694.568 151.92ZM691.368 152.04C691.368 155.76 688.328 158.24 683.688 158.24H676.768V145.92H683.848C688.368 145.92 691.368 148 691.368 152.04ZM703.167 171V141.8H700.087V171H703.167ZM717.795 152.76C721.675 152.76 723.955 154.68 723.955 158.4V159.12C722.115 158.6 720.235 158.24 717.595 158.24C712.355 158.24 708.755 160.56 708.755 164.96C708.755 169.28 712.635 171.44 716.475 171.44C720.115 171.44 722.515 169.76 723.955 167.88V171H726.915V158.36C726.915 152.92 723.755 150.04 718.115 150.04C715.115 150.04 712.875 150.72 710.595 151.76L711.515 154.28C713.435 153.4 715.355 152.76 717.795 152.76ZM717.915 160.52C720.435 160.52 722.475 160.96 723.995 161.4V163.4C723.995 166.68 720.875 169 717.075 169C714.275 169 711.875 167.48 711.875 164.84C711.875 162.2 714.035 160.52 717.915 160.52ZM737.444 153.04H744.004V150.32H737.444V144.08H734.364V150.32H731.484V153.04H734.364V165.52C734.364 169.72 736.884 171.36 740.204 171.36C741.684 171.36 742.844 171.04 743.924 170.48V167.84C742.844 168.36 741.964 168.56 740.924 168.56C738.844 168.56 737.444 167.64 737.444 165.12V153.04ZM753.656 150.4V148.72C753.656 145.76 754.856 144.32 757.256 144.32C758.296 144.32 759.136 144.52 760.256 144.84V142.16C759.256 141.8 758.296 141.64 756.856 141.64C752.896 141.64 750.616 144.04 750.616 148.56V150.36H747.776V153.04H750.616V171H753.696V153.04H760.216V150.4H753.656ZM784.033 160.64C784.033 154.76 779.473 149.88 773.273 149.88C767.033 149.88 762.473 154.84 762.473 160.72C762.473 166.6 766.993 171.48 773.193 171.48C779.433 171.48 784.033 166.52 784.033 160.64ZM780.872 160.72C780.872 165.16 777.753 168.72 773.273 168.72C768.913 168.72 765.633 165.12 765.633 160.64C765.633 156.16 768.713 152.6 773.193 152.6C777.553 152.6 780.872 156.2 780.872 160.72ZM792.692 162.76C792.692 156.52 796.372 153.28 800.892 153.28H801.132V149.96C797.212 149.8 794.212 152.28 792.692 155.72V150.32H789.612V171H792.692V162.76ZM822.223 154C821.103 151.68 818.943 149.88 815.583 149.88C812.103 149.88 810.263 151.76 808.903 153.8V150.32H805.823V171H808.903V159.2C808.903 155.4 811.383 152.68 814.663 152.68C817.943 152.68 819.983 154.96 819.983 158.84V171H823.023V159.08C823.023 155 825.623 152.68 828.743 152.68C832.103 152.68 834.103 154.92 834.103 158.92V171H837.183V158.2C837.183 153.08 834.263 149.88 829.503 149.88C825.903 149.88 823.703 151.72 822.223 154ZM858.07 165.2V165.12C858.07 161.4 854.63 160.16 851.43 159.2C848.67 158.36 846.11 157.6 846.11 155.64V155.56C846.11 153.84 847.67 152.56 850.11 152.56C852.11 152.56 854.31 153.32 856.23 154.56L857.63 152.24C855.51 150.84 852.71 149.96 850.19 149.96C846.11 149.96 843.15 152.32 843.15 155.88V155.96C843.15 159.76 846.75 160.88 849.99 161.8C852.71 162.56 855.15 163.36 855.15 165.44V165.52C855.15 167.52 853.35 168.8 850.87 168.8C848.43 168.8 845.95 167.84 843.71 166.16L842.15 168.36C844.47 170.24 847.75 171.4 850.71 171.4C854.83 171.4 858.07 169.12 858.07 165.2Z" fill="white"/>
<path d="M1055.44 142.8H1052.48L1039.72 171H1042.96L1046.28 163.6H1061.52L1064.8 171H1068.2L1055.44 142.8ZM1060.28 160.76H1047.52L1053.92 146.48L1060.28 160.76ZM1094.09 160.64C1094.09 153.8 1089.17 149.88 1084.21 149.88C1080.41 149.88 1077.97 152 1076.29 154.48V150.32H1073.21V177.4H1076.29V167.04C1077.89 169.36 1080.37 171.44 1084.21 171.44C1089.21 171.44 1094.09 167.44 1094.09 160.64ZM1090.93 160.68C1090.93 165.72 1087.65 168.68 1083.65 168.68C1079.81 168.68 1076.17 165.48 1076.17 160.64C1076.17 155.84 1079.81 152.64 1083.65 152.64C1087.57 152.64 1090.93 155.76 1090.93 160.68ZM1120.65 160.64C1120.65 153.8 1115.73 149.88 1110.77 149.88C1106.97 149.88 1104.53 152 1102.85 154.48V150.32H1099.77V177.4H1102.85V167.04C1104.45 169.36 1106.93 171.44 1110.77 171.44C1115.77 171.44 1120.65 167.44 1120.65 160.64ZM1117.49 160.68C1117.49 165.72 1114.21 168.68 1110.21 168.68C1106.37 168.68 1102.73 165.48 1102.73 160.64C1102.73 155.84 1106.37 152.64 1110.21 152.64C1114.13 152.64 1117.49 155.76 1117.49 160.68ZM1129.69 171V141.8H1126.61V171H1129.69ZM1140.44 145.8V142.4H1136.92V145.8H1140.44ZM1140.2 171V150.32H1137.12V171H1140.2ZM1165.11 167.48L1163.15 165.64C1161.51 167.4 1159.47 168.72 1156.83 168.72C1152.51 168.72 1149.23 165.16 1149.23 160.64C1149.23 156.16 1152.43 152.6 1156.63 152.6C1159.43 152.6 1161.27 154 1162.91 155.72L1164.95 153.56C1163.03 151.52 1160.59 149.88 1156.67 149.88C1150.63 149.88 1146.07 154.84 1146.07 160.72C1146.07 166.56 1150.63 171.48 1156.67 171.48C1160.55 171.48 1163.03 169.8 1165.11 167.48ZM1177.68 152.76C1181.56 152.76 1183.84 154.68 1183.84 158.4V159.12C1182 158.6 1180.12 158.24 1177.48 158.24C1172.24 158.24 1168.64 160.56 1168.64 164.96C1168.64 169.28 1172.52 171.44 1176.36 171.44C1180 171.44 1182.4 169.76 1183.84 167.88V171H1186.8V158.36C1186.8 152.92 1183.64 150.04 1178 150.04C1175 150.04 1172.76 150.72 1170.48 151.76L1171.4 154.28C1173.32 153.4 1175.24 152.76 1177.68 152.76ZM1177.8 160.52C1180.32 160.52 1182.36 160.96 1183.88 161.4V163.4C1183.88 166.68 1180.76 169 1176.96 169C1174.16 169 1171.76 167.48 1171.76 164.84C1171.76 162.2 1173.92 160.52 1177.8 160.52ZM1197.33 153.04H1203.89V150.32H1197.33V144.08H1194.25V150.32H1191.37V153.04H1194.25V165.52C1194.25 169.72 1196.77 171.36 1200.09 171.36C1201.57 171.36 1202.73 171.04 1203.81 170.48V167.84C1202.73 168.36 1201.85 168.56 1200.81 168.56C1198.73 168.56 1197.33 167.64 1197.33 165.12V153.04ZM1212.94 145.8V142.4H1209.42V145.8H1212.94ZM1212.7 171V150.32H1209.62V171H1212.7ZM1240.13 160.64C1240.13 154.76 1235.57 149.88 1229.37 149.88C1223.13 149.88 1218.57 154.84 1218.57 160.72C1218.57 166.6 1223.09 171.48 1229.29 171.48C1235.53 171.48 1240.13 166.52 1240.13 160.64ZM1236.97 160.72C1236.97 165.16 1233.85 168.72 1229.37 168.72C1225.01 168.72 1221.73 165.12 1221.73 160.64C1221.73 156.16 1224.81 152.6 1229.29 152.6C1233.65 152.6 1236.97 156.2 1236.97 160.72ZM1248.79 159.16C1248.79 155.28 1251.43 152.68 1254.99 152.68C1258.63 152.68 1260.71 155.08 1260.71 158.92V171H1263.79V158.16C1263.79 153.24 1260.87 149.88 1255.87 149.88C1252.31 149.88 1250.15 151.68 1248.79 153.92V150.32H1245.71V171H1248.79V159.16ZM1284.55 165.2V165.12C1284.55 161.4 1281.11 160.16 1277.91 159.2C1275.15 158.36 1272.59 157.6 1272.59 155.64V155.56C1272.59 153.84 1274.15 152.56 1276.59 152.56C1278.59 152.56 1280.79 153.32 1282.71 154.56L1284.11 152.24C1281.99 150.84 1279.19 149.96 1276.67 149.96C1272.59 149.96 1269.63 152.32 1269.63 155.88V155.96C1269.63 159.76 1273.23 160.88 1276.47 161.8C1279.19 162.56 1281.63 163.36 1281.63 165.44V165.52C1281.63 167.52 1279.83 168.8 1277.35 168.8C1274.91 168.8 1272.43 167.84 1270.19 166.16L1268.63 168.36C1270.95 170.24 1274.23 171.4 1277.19 171.4C1281.31 171.4 1284.55 169.12 1284.55 165.2Z" fill="white"/>
<path d="M1040.08 928.96C1040.08 921.04 1034 915 1025.2 915H1015.48V943H1025.2C1034 943 1040.08 936.88 1040.08 928.96ZM1036.8 929.04C1036.8 935.28 1032.28 940.08 1025.2 940.08H1018.64V917.92H1025.2C1032.28 917.92 1036.8 922.8 1036.8 929.04ZM1048.09 933.8H1064.49C1064.53 933.44 1064.53 933.12 1064.53 932.84C1064.53 926.76 1061.01 921.88 1054.89 921.88C1049.17 921.88 1044.97 926.68 1044.97 932.68C1044.97 939.12 1049.61 943.48 1055.29 943.48C1059.21 943.48 1061.73 941.92 1063.81 939.6L1061.89 937.88C1060.21 939.64 1058.21 940.8 1055.37 940.8C1051.73 940.8 1048.53 938.28 1048.09 933.8ZM1048.09 931.52C1048.49 927.48 1051.21 924.48 1054.81 924.48C1058.93 924.48 1061.09 927.76 1061.41 931.52H1048.09ZM1087.68 939.48L1085.72 937.64C1084.08 939.4 1082.04 940.72 1079.4 940.72C1075.08 940.72 1071.8 937.16 1071.8 932.64C1071.8 928.16 1075 924.6 1079.2 924.6C1082 924.6 1083.84 926 1085.48 927.72L1087.52 925.56C1085.6 923.52 1083.16 921.88 1079.24 921.88C1073.2 921.88 1068.64 926.84 1068.64 932.72C1068.64 938.56 1073.2 943.48 1079.24 943.48C1083.12 943.48 1085.6 941.8 1087.68 939.48ZM1094.03 933.8H1110.43C1110.47 933.44 1110.47 933.12 1110.47 932.84C1110.47 926.76 1106.95 921.88 1100.83 921.88C1095.11 921.88 1090.91 926.68 1090.91 932.68C1090.91 939.12 1095.55 943.48 1101.23 943.48C1105.15 943.48 1107.67 941.92 1109.75 939.6L1107.83 937.88C1106.15 939.64 1104.15 940.8 1101.31 940.8C1097.67 940.8 1094.47 938.28 1094.03 933.8ZM1094.03 931.52C1094.43 927.48 1097.15 924.48 1100.75 924.48C1104.87 924.48 1107.03 927.76 1107.35 931.52H1094.03ZM1118.94 931.16C1118.94 927.28 1121.58 924.68 1125.14 924.68C1128.78 924.68 1130.86 927.08 1130.86 930.92V943H1133.94V930.16C1133.94 925.24 1131.02 921.88 1126.02 921.88C1122.46 921.88 1120.3 923.68 1118.94 925.92V922.32H1115.86V943H1118.94V931.16ZM1144.67 925.04H1151.23V922.32H1144.67V916.08H1141.59V922.32H1138.71V925.04H1141.59V937.52C1141.59 941.72 1144.11 943.36 1147.43 943.36C1148.91 943.36 1150.07 943.04 1151.15 942.48V939.84C1150.07 940.36 1149.19 940.56 1148.15 940.56C1146.07 940.56 1144.67 939.64 1144.67 937.12V925.04ZM1159.76 934.76C1159.76 928.52 1163.44 925.28 1167.96 925.28H1168.2V921.96C1164.28 921.8 1161.28 924.28 1159.76 927.72V922.32H1156.68V943H1159.76V934.76ZM1179.36 924.76C1183.24 924.76 1185.52 926.68 1185.52 930.4V931.12C1183.68 930.6 1181.8 930.24 1179.16 930.24C1173.92 930.24 1170.32 932.56 1170.32 936.96C1170.32 941.28 1174.2 943.44 1178.04 943.44C1181.68 943.44 1184.08 941.76 1185.52 939.88V943H1188.48V930.36C1188.48 924.92 1185.32 922.04 1179.68 922.04C1176.68 922.04 1174.44 922.72 1172.16 923.76L1173.08 926.28C1175 925.4 1176.92 924.76 1179.36 924.76ZM1179.48 932.52C1182 932.52 1184.04 932.96 1185.56 933.4V935.4C1185.56 938.68 1182.44 941 1178.64 941C1175.84 941 1173.44 939.48 1173.44 936.84C1173.44 934.2 1175.6 932.52 1179.48 932.52ZM1198.4 943V913.8H1195.32V943H1198.4ZM1209.15 917.8V914.4H1205.63V917.8H1209.15ZM1208.91 943V922.32H1205.83V943H1208.91ZM1228.58 924.92L1214.86 941.04V943H1232.78V940.4H1219.02L1232.78 924.28V922.32H1215.34V924.92H1228.58ZM1245.76 924.76C1249.64 924.76 1251.92 926.68 1251.92 930.4V931.12C1250.08 930.6 1248.2 930.24 1245.56 930.24C1240.32 930.24 1236.72 932.56 1236.72 936.96C1236.72 941.28 1240.6 943.44 1244.44 943.44C1248.08 943.44 1250.48 941.76 1251.92 939.88V943H1254.88V930.36C1254.88 924.92 1251.72 922.04 1246.08 922.04C1243.08 922.04 1240.84 922.72 1238.56 923.76L1239.48 926.28C1241.4 925.4 1243.32 924.76 1245.76 924.76ZM1245.88 932.52C1248.4 932.52 1250.44 932.96 1251.96 933.4V935.4C1251.96 938.68 1248.84 941 1245.04 941C1242.24 941 1239.84 939.48 1239.84 936.84C1239.84 934.2 1242 932.52 1245.88 932.52ZM1265.41 925.04H1271.97V922.32H1265.41V916.08H1262.33V922.32H1259.45V925.04H1262.33V937.52C1262.33 941.72 1264.85 943.36 1268.17 943.36C1269.65 943.36 1270.81 943.04 1271.89 942.48V939.84C1270.81 940.36 1269.93 940.56 1268.89 940.56C1266.81 940.56 1265.41 939.64 1265.41 937.12V925.04ZM1281.02 917.8V914.4H1277.5V917.8H1281.02ZM1280.78 943V922.32H1277.7V943H1280.78ZM1308.21 932.64C1308.21 926.76 1303.65 921.88 1297.45 921.88C1291.21 921.88 1286.65 926.84 1286.65 932.72C1286.65 938.6 1291.17 943.48 1297.37 943.48C1303.61 943.48 1308.21 938.52 1308.21 932.64ZM1305.05 932.72C1305.05 937.16 1301.93 940.72 1297.45 940.72C1293.09 940.72 1289.81 937.12 1289.81 932.64C1289.81 928.16 1292.89 924.6 1297.37 924.6C1301.73 924.6 1305.05 928.2 1305.05 932.72ZM1316.87 931.16C1316.87 927.28 1319.51 924.68 1323.07 924.68C1326.71 924.68 1328.79 927.08 1328.79 930.92V943H1331.87V930.16C1331.87 925.24 1328.95 921.88 1323.95 921.88C1320.39 921.88 1318.23 923.68 1316.87 925.92V922.32H1313.79V943H1316.87V931.16Z" fill="white"/>
<path d="M275.099 532.96C275.099 525.04 269.019 519 260.219 519H250.499V547H260.219C269.019 547 275.099 540.88 275.099 532.96ZM271.819 533.04C271.819 539.28 267.299 544.08 260.219 544.08H253.659V521.92H260.219C267.299 521.92 271.819 526.8 271.819 533.04ZM284.868 521.8V518.4H281.348V521.8H284.868ZM284.628 547V526.32H281.548V547H284.628ZM295.976 526.4V524.72C295.976 521.76 297.176 520.32 299.576 520.32C300.616 520.32 301.456 520.52 302.576 520.84V518.16C301.576 517.8 300.616 517.64 299.176 517.64C295.216 517.64 292.936 520.04 292.936 524.56V526.36H290.096V529.04H292.936V547H296.016V529.04H302.536V526.4H295.976ZM310.663 526.4V524.72C310.663 521.76 311.863 520.32 314.263 520.32C315.303 520.32 316.143 520.52 317.263 520.84V518.16C316.263 517.8 315.303 517.64 313.863 517.64C309.903 517.64 307.623 520.04 307.623 524.56V526.36H304.783V529.04H307.623V547H310.703V529.04H317.223V526.4H310.663ZM322.6 537.8H339C339.04 537.44 339.04 537.12 339.04 536.84C339.04 530.76 335.52 525.88 329.4 525.88C323.68 525.88 319.48 530.68 319.48 536.68C319.48 543.12 324.12 547.48 329.8 547.48C333.72 547.48 336.24 545.92 338.32 543.6L336.4 541.88C334.72 543.64 332.72 544.8 329.88 544.8C326.24 544.8 323.04 542.28 322.6 537.8ZM322.6 535.52C323 531.48 325.72 528.48 329.32 528.48C333.44 528.48 335.6 531.76 335.92 535.52H322.6ZM347.512 538.76C347.512 532.52 351.192 529.28 355.712 529.28H355.952V525.96C352.032 525.8 349.032 528.28 347.512 531.72V526.32H344.432V547H347.512V538.76ZM361.585 537.8H377.985C378.025 537.44 378.025 537.12 378.025 536.84C378.025 530.76 374.505 525.88 368.385 525.88C362.665 525.88 358.465 530.68 358.465 536.68C358.465 543.12 363.105 547.48 368.785 547.48C372.705 547.48 375.225 545.92 377.305 543.6L375.385 541.88C373.705 543.64 371.705 544.8 368.865 544.8C365.225 544.8 362.025 542.28 361.585 537.8ZM361.585 535.52C361.985 531.48 364.705 528.48 368.305 528.48C372.425 528.48 374.585 531.76 374.905 535.52H361.585ZM386.497 535.16C386.497 531.28 389.137 528.68 392.697 528.68C396.337 528.68 398.417 531.08 398.417 534.92V547H401.497V534.16C401.497 529.24 398.577 525.88 393.577 525.88C390.017 525.88 387.857 527.68 386.497 529.92V526.32H383.417V547H386.497V535.16ZM412.225 529.04H418.785V526.32H412.225V520.08H409.145V526.32H406.265V529.04H409.145V541.52C409.145 545.72 411.665 547.36 414.985 547.36C416.465 547.36 417.625 547.04 418.705 546.48V543.84C417.625 544.36 416.745 544.56 415.705 544.56C413.625 544.56 412.225 543.64 412.225 541.12V529.04ZM427.837 521.8V518.4H424.317V521.8H427.837ZM427.597 547V526.32H424.517V547H427.597ZM442.225 528.76C446.105 528.76 448.385 530.68 448.385 534.4V535.12C446.545 534.6 444.665 534.24 442.025 534.24C436.785 534.24 433.185 536.56 433.185 540.96C433.185 545.28 437.065 547.44 440.905 547.44C444.545 547.44 446.945 545.76 448.385 543.88V547H451.345V534.36C451.345 528.92 448.185 526.04 442.545 526.04C439.545 526.04 437.305 526.72 435.025 527.76L435.945 530.28C437.865 529.4 439.785 528.76 442.225 528.76ZM442.345 536.52C444.865 536.52 446.905 536.96 448.425 537.4V539.4C448.425 542.68 445.305 545 441.505 545C438.705 545 436.305 543.48 436.305 540.84C436.305 538.2 438.465 536.52 442.345 536.52ZM461.873 529.04H468.433V526.32H461.873V520.08H458.793V526.32H455.913V529.04H458.793V541.52C458.793 545.72 461.313 547.36 464.633 547.36C466.113 547.36 467.273 547.04 468.353 546.48V543.84C467.273 544.36 466.393 544.56 465.353 544.56C463.273 544.56 461.873 543.64 461.873 541.12V529.04ZM477.485 521.8V518.4H473.965V521.8H477.485ZM477.245 547V526.32H474.165V547H477.245ZM504.673 536.64C504.673 530.76 500.113 525.88 493.913 525.88C487.673 525.88 483.113 530.84 483.113 536.72C483.113 542.6 487.633 547.48 493.833 547.48C500.073 547.48 504.673 542.52 504.673 536.64ZM501.513 536.72C501.513 541.16 498.393 544.72 493.913 544.72C489.553 544.72 486.273 541.12 486.273 536.64C486.273 532.16 489.353 528.6 493.833 528.6C498.193 528.6 501.513 532.2 501.513 536.72ZM513.333 535.16C513.333 531.28 515.973 528.68 519.533 528.68C523.173 528.68 525.253 531.08 525.253 534.92V547H528.333V534.16C528.333 529.24 525.413 525.88 520.413 525.88C516.853 525.88 514.693 527.68 513.333 529.92V526.32H510.253V547H513.333V535.16Z" fill="white"/>
<path d="M699.912 923.92C699.912 918.36 695.752 915 689.432 915H678.952V943H682.112V933.12H688.912C694.872 933.12 699.912 930 699.912 923.92ZM696.712 924.04C696.712 927.76 693.672 930.24 689.032 930.24H682.112V917.92H689.192C693.712 917.92 696.712 920 696.712 924.04ZM712.24 924.76C716.12 924.76 718.4 926.68 718.4 930.4V931.12C716.56 930.6 714.68 930.24 712.04 930.24C706.8 930.24 703.2 932.56 703.2 936.96C703.2 941.28 707.08 943.44 710.92 943.44C714.56 943.44 716.96 941.76 718.4 939.88V943H721.36V930.36C721.36 924.92 718.2 922.04 712.56 922.04C709.56 922.04 707.32 922.72 705.04 923.76L705.96 926.28C707.88 925.4 709.8 924.76 712.24 924.76ZM712.36 932.52C714.88 932.52 716.92 932.96 718.44 933.4V935.4C718.44 938.68 715.32 941 711.52 941C708.72 941 706.32 939.48 706.32 936.84C706.32 934.2 708.48 932.52 712.36 932.52ZM731.004 934.76C731.004 928.52 734.684 925.28 739.204 925.28H739.444V921.96C735.524 921.8 732.524 924.28 731.004 927.72V922.32H727.924V943H731.004V934.76ZM747.735 917.8V914.4H744.215V917.8H747.735ZM747.495 943V922.32H744.415V943H747.495ZM758.803 925.04H765.363V922.32H758.803V916.08H755.723V922.32H752.843V925.04H755.723V937.52C755.723 941.72 758.243 943.36 761.563 943.36C763.043 943.36 764.203 943.04 765.283 942.48V939.84C764.203 940.36 763.323 940.56 762.283 940.56C760.203 940.56 758.803 939.64 758.803 937.12V925.04ZM789.575 922.32H786.295L779.655 939.56L772.135 922.32H768.735L778.135 942.92C776.895 945.84 775.735 946.8 773.895 946.8C772.575 946.8 771.655 946.56 770.655 946.04L769.615 948.48C771.015 949.16 772.295 949.52 774.015 949.52C777.135 949.52 779.135 947.96 780.895 943.68L789.575 922.32Z" fill="white"/>
<path d="M1422.96 542.56L1420.88 540.52C1418.2 543.08 1415.68 544.56 1411.84 544.56C1405.68 544.56 1401 539.48 1401 532.96C1401 526.44 1405.64 521.44 1411.84 521.44C1415.64 521.44 1418.28 523.04 1420.64 525.28L1422.8 522.96C1420 520.32 1416.96 518.52 1411.88 518.52C1403.64 518.52 1397.72 525.04 1397.72 533.04C1397.72 541.12 1403.68 547.48 1411.76 547.48C1416.84 547.48 1420.04 545.52 1422.96 542.56ZM1431.05 538.76C1431.05 532.52 1434.73 529.28 1439.25 529.28H1439.49V525.96C1435.57 525.8 1432.57 528.28 1431.05 531.72V526.32H1427.97V547H1431.05V538.76ZM1445.12 537.8H1461.52C1461.56 537.44 1461.56 537.12 1461.56 536.84C1461.56 530.76 1458.04 525.88 1451.92 525.88C1446.2 525.88 1442 530.68 1442 536.68C1442 543.12 1446.64 547.48 1452.32 547.48C1456.24 547.48 1458.76 545.92 1460.84 543.6L1458.92 541.88C1457.24 543.64 1455.24 544.8 1452.4 544.8C1448.76 544.8 1445.56 542.28 1445.12 537.8ZM1445.12 535.52C1445.52 531.48 1448.24 528.48 1451.84 528.48C1455.96 528.48 1458.12 531.76 1458.44 535.52H1445.12ZM1474.44 528.76C1478.32 528.76 1480.6 530.68 1480.6 534.4V535.12C1478.76 534.6 1476.88 534.24 1474.24 534.24C1469 534.24 1465.4 536.56 1465.4 540.96C1465.4 545.28 1469.28 547.44 1473.12 547.44C1476.76 547.44 1479.16 545.76 1480.6 543.88V547H1483.56V534.36C1483.56 528.92 1480.4 526.04 1474.76 526.04C1471.76 526.04 1469.52 526.72 1467.24 527.76L1468.16 530.28C1470.08 529.4 1472 528.76 1474.44 528.76ZM1474.56 536.52C1477.08 536.52 1479.12 536.96 1480.64 537.4V539.4C1480.64 542.68 1477.52 545 1473.72 545C1470.92 545 1468.52 543.48 1468.52 540.84C1468.52 538.2 1470.68 536.52 1474.56 536.52ZM1494.08 529.04H1500.64V526.32H1494.08V520.08H1491V526.32H1488.12V529.04H1491V541.52C1491 545.72 1493.52 547.36 1496.84 547.36C1498.32 547.36 1499.48 547.04 1500.56 546.48V543.84C1499.48 544.36 1498.6 544.56 1497.56 544.56C1495.48 544.56 1494.08 543.64 1494.08 541.12V529.04ZM1525.79 536.64C1525.79 530.76 1521.23 525.88 1515.03 525.88C1508.79 525.88 1504.23 530.84 1504.23 536.72C1504.23 542.6 1508.75 547.48 1514.95 547.48C1521.19 547.48 1525.79 542.52 1525.79 536.64ZM1522.63 536.72C1522.63 541.16 1519.51 544.72 1515.03 544.72C1510.67 544.72 1507.39 541.12 1507.39 536.64C1507.39 532.16 1510.47 528.6 1514.95 528.6C1519.31 528.6 1522.63 532.2 1522.63 536.72ZM1534.45 538.76C1534.45 532.52 1538.13 529.28 1542.65 529.28H1542.89V525.96C1538.97 525.8 1535.97 528.28 1534.45 531.72V526.32H1531.37V547H1534.45V538.76ZM1561.78 541.2V541.12C1561.78 537.4 1558.34 536.16 1555.14 535.2C1552.38 534.36 1549.82 533.6 1549.82 531.64V531.56C1549.82 529.84 1551.38 528.56 1553.82 528.56C1555.82 528.56 1558.02 529.32 1559.94 530.56L1561.34 528.24C1559.22 526.84 1556.42 525.96 1553.9 525.96C1549.82 525.96 1546.86 528.32 1546.86 531.88V531.96C1546.86 535.76 1550.46 536.88 1553.7 537.8C1556.42 538.56 1558.86 539.36 1558.86 541.44V541.52C1558.86 543.52 1557.06 544.8 1554.58 544.8C1552.14 544.8 1549.66 543.84 1547.42 542.16L1545.86 544.36C1548.18 546.24 1551.46 547.4 1554.42 547.4C1558.54 547.4 1561.78 545.12 1561.78 541.2Z" fill="#FFF9ED"/>
<path d="M175.28 789.8H172.32L159.56 818H162.8L166.12 810.6H181.36L184.64 818H188.04L175.28 789.8ZM180.12 807.76H167.36L173.76 793.48L180.12 807.76ZM209.442 801C208.322 798.68 206.162 796.88 202.802 796.88C199.322 796.88 197.482 798.76 196.122 800.8V797.32H193.042V818H196.122V806.2C196.122 802.4 198.602 799.68 201.882 799.68C205.162 799.68 207.202 801.96 207.202 805.84V818H210.242V806.08C210.242 802 212.842 799.68 215.962 799.68C219.322 799.68 221.322 801.92 221.322 805.92V818H224.402V805.2C224.402 800.08 221.482 796.88 216.722 796.88C213.122 796.88 210.922 798.72 209.442 801ZM238.568 799.76C242.448 799.76 244.728 801.68 244.728 805.4V806.12C242.888 805.6 241.008 805.24 238.368 805.24C233.128 805.24 229.528 807.56 229.528 811.96C229.528 816.28 233.408 818.44 237.248 818.44C240.888 818.44 243.288 816.76 244.728 814.88V818H247.688V805.36C247.688 799.92 244.528 797.04 238.888 797.04C235.888 797.04 233.648 797.72 231.368 798.76L232.288 801.28C234.208 800.4 236.128 799.76 238.568 799.76ZM238.688 807.52C241.208 807.52 243.248 807.96 244.768 808.4V810.4C244.768 813.68 241.648 816 237.848 816C235.048 816 232.648 814.48 232.648 811.84C232.648 809.2 234.808 807.52 238.688 807.52ZM266.773 799.92L253.053 816.04V818H270.973V815.4H257.213L270.973 799.28V797.32H253.533V799.92H266.773ZM296.173 807.64C296.173 801.76 291.613 796.88 285.413 796.88C279.173 796.88 274.613 801.84 274.613 807.72C274.613 813.6 279.133 818.48 285.333 818.48C291.573 818.48 296.173 813.52 296.173 807.64ZM293.013 807.72C293.013 812.16 289.893 815.72 285.413 815.72C281.053 815.72 277.773 812.12 277.773 807.64C277.773 803.16 280.853 799.6 285.333 799.6C289.693 799.6 293.013 803.2 293.013 807.72ZM304.833 806.16C304.833 802.28 307.473 799.68 311.033 799.68C314.673 799.68 316.753 802.08 316.753 805.92V818H319.833V805.16C319.833 800.24 316.913 796.88 311.913 796.88C308.353 796.88 306.193 798.68 304.833 800.92V797.32H301.753V818H304.833V806.16ZM341.353 797C341.353 794.44 343.673 792.44 347.313 792.44C350.193 792.44 352.793 793.36 355.393 795.48L357.233 793.04C354.393 790.76 351.473 789.6 347.393 789.6C342.073 789.6 338.193 792.8 338.193 797.28C338.193 801.92 341.153 804 347.593 805.4C353.473 806.64 354.873 808.12 354.873 810.76C354.873 813.6 352.393 815.56 348.633 815.56C344.753 815.56 341.953 814.24 339.033 811.6L337.073 813.92C340.433 816.92 344.073 818.4 348.513 818.4C354.073 818.4 358.073 815.28 358.073 810.44C358.073 806.12 355.193 803.84 348.953 802.48C342.793 801.16 341.353 799.68 341.353 797ZM365.819 808.8H382.219C382.259 808.44 382.259 808.12 382.259 807.84C382.259 801.76 378.739 796.88 372.619 796.88C366.899 796.88 362.699 801.68 362.699 807.68C362.699 814.12 367.339 818.48 373.019 818.48C376.939 818.48 379.459 816.92 381.539 814.6L379.619 812.88C377.939 814.64 375.939 815.8 373.099 815.8C369.459 815.8 366.259 813.28 365.819 808.8ZM365.819 806.52C366.219 802.48 368.939 799.48 372.539 799.48C376.659 799.48 378.819 802.76 379.139 806.52H365.819ZM391.011 818V788.8H387.931V818H391.011ZM401.519 818V788.8H398.439V818H401.519ZM410.507 808.8H426.907C426.947 808.44 426.947 808.12 426.947 807.84C426.947 801.76 423.427 796.88 417.307 796.88C411.587 796.88 407.387 801.68 407.387 807.68C407.387 814.12 412.027 818.48 417.707 818.48C421.627 818.48 424.147 816.92 426.227 814.6L424.307 812.88C422.627 814.64 420.627 815.8 417.787 815.8C414.147 815.8 410.947 813.28 410.507 808.8ZM410.507 806.52C410.907 802.48 413.627 799.48 417.227 799.48C421.347 799.48 423.507 802.76 423.827 806.52H410.507ZM435.418 809.76C435.418 803.52 439.098 800.28 443.618 800.28H443.858V796.96C439.938 796.8 436.938 799.28 435.418 802.72V797.32H432.338V818H435.418V809.76Z" fill="#FFF9ED" fill-opacity="0.75"/>
<path d="M164.4 862C164.4 859.44 166.72 857.44 170.36 857.44C173.24 857.44 175.84 858.36 178.44 860.48L180.28 858.04C177.44 855.76 174.52 854.6 170.44 854.6C165.12 854.6 161.24 857.8 161.24 862.28C161.24 866.92 164.2 869 170.64 870.4C176.52 871.64 177.92 873.12 177.92 875.76C177.92 878.6 175.44 880.56 171.68 880.56C167.8 880.56 165 879.24 162.08 876.6L160.12 878.92C163.48 881.92 167.12 883.4 171.56 883.4C177.12 883.4 181.12 880.28 181.12 875.44C181.12 871.12 178.24 868.84 172 867.48C165.84 866.16 164.4 864.68 164.4 862ZM207.906 872.64C207.906 865.8 202.986 861.88 198.026 861.88C194.226 861.88 191.786 864 190.106 866.48V862.32H187.026V889.4H190.106V879.04C191.706 881.36 194.186 883.44 198.026 883.44C203.026 883.44 207.906 879.44 207.906 872.64ZM204.746 872.68C204.746 877.72 201.466 880.68 197.466 880.68C193.626 880.68 189.986 877.48 189.986 872.64C189.986 867.84 193.626 864.64 197.466 864.64C201.386 864.64 204.746 867.76 204.746 872.68ZM233.868 872.64C233.868 866.76 229.308 861.88 223.108 861.88C216.868 861.88 212.308 866.84 212.308 872.72C212.308 878.6 216.828 883.48 223.028 883.48C229.268 883.48 233.868 878.52 233.868 872.64ZM230.708 872.72C230.708 877.16 227.588 880.72 223.108 880.72C218.748 880.72 215.468 877.12 215.468 872.64C215.468 868.16 218.548 864.6 223.028 864.6C227.388 864.6 230.708 868.2 230.708 872.72ZM243.608 865.04H250.168V862.32H243.608V856.08H240.528V862.32H237.648V865.04H240.528V877.52C240.528 881.72 243.048 883.36 246.368 883.36C247.848 883.36 249.008 883.04 250.088 882.48V879.84C249.008 880.36 248.128 880.56 247.088 880.56C245.008 880.56 243.608 879.64 243.608 877.12V865.04ZM259.22 857.8V854.4H255.7V857.8H259.22ZM258.98 883V862.32H255.9V883H258.98ZM270.328 862.4V860.72C270.328 857.76 271.528 856.32 273.928 856.32C274.968 856.32 275.808 856.52 276.928 856.84V854.16C275.928 853.8 274.968 853.64 273.528 853.64C269.568 853.64 267.288 856.04 267.288 860.56V862.36H264.448V865.04H267.288V883H270.368V865.04H276.888V862.4H270.328ZM299.575 862.32H296.295L289.655 879.56L282.135 862.32H278.735L288.135 882.92C286.895 885.84 285.735 886.8 283.895 886.8C282.575 886.8 281.655 886.56 280.655 886.04L279.615 888.48C281.015 889.16 282.295 889.52 284.015 889.52C287.135 889.52 289.135 887.96 290.895 883.68L299.575 862.32Z" fill="#FFF9ED" fill-opacity="0.75"/>
<path d="M164.4 922C164.4 919.44 166.72 917.44 170.36 917.44C173.24 917.44 175.84 918.36 178.44 920.48L180.28 918.04C177.44 915.76 174.52 914.6 170.44 914.6C165.12 914.6 161.24 917.8 161.24 922.28C161.24 926.92 164.2 929 170.64 930.4C176.52 931.64 177.92 933.12 177.92 935.76C177.92 938.6 175.44 940.56 171.68 940.56C167.8 940.56 165 939.24 162.08 936.6L160.12 938.92C163.48 941.92 167.12 943.4 171.56 943.4C177.12 943.4 181.12 940.28 181.12 935.44C181.12 931.12 178.24 928.84 172 927.48C165.84 926.16 164.4 924.68 164.4 922ZM194.506 924.76C198.386 924.76 200.666 926.68 200.666 930.4V931.12C198.826 930.6 196.946 930.24 194.306 930.24C189.066 930.24 185.466 932.56 185.466 936.96C185.466 941.28 189.346 943.44 193.186 943.44C196.826 943.44 199.226 941.76 200.666 939.88V943H203.626V930.36C203.626 924.92 200.466 922.04 194.826 922.04C191.826 922.04 189.586 922.72 187.306 923.76L188.226 926.28C190.146 925.4 192.066 924.76 194.506 924.76ZM194.626 932.52C197.146 932.52 199.186 932.96 200.706 933.4V935.4C200.706 938.68 197.586 941 193.786 941C190.986 941 188.586 939.48 188.586 936.84C188.586 934.2 190.746 932.52 194.626 932.52ZM213.55 943V913.8H210.47V943H213.55ZM222.538 933.8H238.938C238.978 933.44 238.978 933.12 238.978 932.84C238.978 926.76 235.458 921.88 229.338 921.88C223.618 921.88 219.418 926.68 219.418 932.68C219.418 939.12 224.058 943.48 229.738 943.48C233.658 943.48 236.178 941.92 238.258 939.6L236.338 937.88C234.658 939.64 232.658 940.8 229.818 940.8C226.178 940.8 222.978 938.28 222.538 933.8ZM222.538 931.52C222.938 927.48 225.658 924.48 229.258 924.48C233.378 924.48 235.538 927.76 235.858 931.52H222.538ZM258.57 937.2V937.12C258.57 933.4 255.13 932.16 251.93 931.2C249.17 930.36 246.61 929.6 246.61 927.64V927.56C246.61 925.84 248.17 924.56 250.61 924.56C252.61 924.56 254.81 925.32 256.73 926.56L258.13 924.24C256.01 922.84 253.21 921.96 250.69 921.96C246.61 921.96 243.65 924.32 243.65 927.88V927.96C243.65 931.76 247.25 932.88 250.49 933.8C253.21 934.56 255.65 935.36 255.65 937.44V937.52C255.65 939.52 253.85 940.8 251.37 940.8C248.93 940.8 246.45 939.84 244.21 938.16L242.65 940.36C244.97 942.24 248.25 943.4 251.21 943.4C255.33 943.4 258.57 941.12 258.57 937.2ZM268.492 922.4V920.72C268.492 917.76 269.692 916.32 272.092 916.32C273.132 916.32 273.972 916.52 275.092 916.84V914.16C274.092 913.8 273.132 913.64 271.692 913.64C267.732 913.64 265.452 916.04 265.452 920.56V922.36H262.612V925.04H265.452V943H268.532V925.04H275.052V922.4H268.492ZM298.868 932.64C298.868 926.76 294.308 921.88 288.108 921.88C281.868 921.88 277.308 926.84 277.308 932.72C277.308 938.6 281.828 943.48 288.028 943.48C294.268 943.48 298.868 938.52 298.868 932.64ZM295.708 932.72C295.708 937.16 292.588 940.72 288.108 940.72C283.748 940.72 280.468 937.12 280.468 932.64C280.468 928.16 283.548 924.6 288.028 924.6C292.388 924.6 295.708 928.2 295.708 932.72ZM307.528 934.76C307.528 928.52 311.208 925.28 315.728 925.28H315.968V921.96C312.048 921.8 309.048 924.28 307.528 927.72V922.32H304.448V943H307.528V934.76ZM337.52 939.48L335.56 937.64C333.92 939.4 331.88 940.72 329.24 940.72C324.92 940.72 321.64 937.16 321.64 932.64C321.64 928.16 324.84 924.6 329.04 924.6C331.84 924.6 333.68 926 335.32 927.72L337.36 925.56C335.44 923.52 333 921.88 329.08 921.88C323.04 921.88 318.48 926.84 318.48 932.72C318.48 938.56 323.04 943.48 329.08 943.48C332.96 943.48 335.44 941.8 337.52 939.48ZM343.866 933.8H360.266C360.306 933.44 360.306 933.12 360.306 932.84C360.306 926.76 356.786 921.88 350.666 921.88C344.946 921.88 340.746 926.68 340.746 932.68C340.746 939.12 345.386 943.48 351.066 943.48C354.986 943.48 357.506 941.92 359.586 939.6L357.666 937.88C355.986 939.64 353.986 940.8 351.146 940.8C347.506 940.8 344.306 938.28 343.866 933.8ZM343.866 931.52C344.266 927.48 346.986 924.48 350.586 924.48C354.706 924.48 356.866 927.76 357.186 931.52H343.866ZM378.21 943H397.13V940.08H381.37V915H378.21V943ZM406.056 917.8V914.4H402.536V917.8H406.056ZM405.816 943V922.32H402.736V943H405.816ZM432.643 939.4V922.32H429.563V926.04C427.883 923.8 425.363 921.88 421.483 921.88C416.563 921.88 411.763 925.6 411.763 931.68C411.763 937.72 416.523 941.4 421.483 941.4C425.283 941.4 427.803 939.44 429.603 937.04V939.48C429.603 944.32 426.643 946.84 422.083 946.84C419.123 946.84 416.483 945.92 414.123 944.2L412.723 946.6C415.483 948.52 418.683 949.48 422.123 949.48C428.483 949.48 432.643 946.08 432.643 939.4ZM429.683 931.64C429.683 935.88 426.003 938.68 422.083 938.68C418.243 938.68 414.923 935.84 414.923 931.6C414.923 927.28 418.163 924.6 422.083 924.6C426.003 924.6 429.683 927.36 429.683 931.64ZM442.606 931.16C442.606 927.28 445.246 924.68 448.806 924.68C452.446 924.68 454.526 927.08 454.526 930.92V943H457.606V930.16C457.606 925.24 454.686 921.88 449.686 921.88C446.126 921.88 443.966 923.68 442.606 925.92V913.8H439.526V943H442.606V931.16ZM468.334 925.04H474.894V922.32H468.334V916.08H465.254V922.32H462.374V925.04H465.254V937.52C465.254 941.72 467.774 943.36 471.094 943.36C472.574 943.36 473.734 943.04 474.814 942.48V939.84C473.734 940.36 472.854 940.56 471.814 940.56C469.734 940.56 468.334 939.64 468.334 937.12V925.04ZM483.426 931.16C483.426 927.28 486.066 924.68 489.626 924.68C493.266 924.68 495.346 927.08 495.346 930.92V943H498.426V930.16C498.426 925.24 495.506 921.88 490.506 921.88C486.946 921.88 484.786 923.68 483.426 925.92V922.32H480.346V943H483.426V931.16ZM508.595 917.8V914.4H505.075V917.8H508.595ZM508.355 943V922.32H505.275V943H508.355ZM518.583 931.16C518.583 927.28 521.223 924.68 524.783 924.68C528.423 924.68 530.503 927.08 530.503 930.92V943H533.583V930.16C533.583 925.24 530.663 921.88 525.663 921.88C522.103 921.88 519.943 923.68 518.583 925.92V922.32H515.503V943H518.583V931.16ZM559.831 939.4V922.32H556.751V926.04C555.071 923.8 552.551 921.88 548.671 921.88C543.751 921.88 538.951 925.6 538.951 931.68C538.951 937.72 543.711 941.4 548.671 941.4C552.471 941.4 554.991 939.44 556.791 937.04V939.48C556.791 944.32 553.831 946.84 549.271 946.84C546.311 946.84 543.671 945.92 541.311 944.2L539.911 946.6C542.671 948.52 545.871 949.48 549.311 949.48C555.671 949.48 559.831 946.08 559.831 939.4ZM556.871 931.64C556.871 935.88 553.191 938.68 549.271 938.68C545.431 938.68 542.111 935.84 542.111 931.6C542.111 927.28 545.351 924.6 549.271 924.6C553.191 924.6 556.871 927.36 556.871 931.64Z" fill="#FFF9ED" fill-opacity="0.75"/>
<rect x="92" y="845" width="42" height="42" fill="#1DB954" fill-opacity="0.25" stroke="#1DB954" stroke-width="4"/>
<rect x="92" y="781" width="42" height="42" fill="#FF9900" fill-opacity="0.25" stroke="#FF9900" stroke-width="4"/>
<rect x="92" y="909" width="42" height="42" fill="#0070D2" fill-opacity="0.25" stroke="#0070D2" stroke-width="4"/>
</svg>
