<svg viewBox="0 0 601 601" version="1.1" xmlns="http://www.w3.org/2000/svg" xmlns:xlink="http://www.w3.org/1999/xlink">
    <g stroke="none" stroke-width="1" fill="none" fill-rule="evenodd">
        <g transform="translate(-60.000000, -60.000000)">
            <g transform="translate(80.000000, 80.000000)">
                <circle stroke="#FFFFFF" stroke-width="20" fill="#FFFFFF" cx="335" cy="449" r="122"></circle>
                <path d="M327,560 C327,481.219908 327,481.219908 327,351.8406 C327,327.526967 327,327.526967 327,302.988704 C327,198.928812 327,198.928812 327,112 L327,102 L337,102 C466.234631,102 571,206.765369 571,336 C571,465.234631 466.234631,570 337,570 L327,570 L327,560 Z" stroke="#FFFFFF" stroke-width="20" fill="#FFFFFF"></path>
                <path d="M214,448 C214,369.669024 214,369.669024 214,241.025542 C214,216.127893 214,216.127893 214,190.988704 C214,86.928812 214,86.928812 214,2.96822129e-13 L214,-10 L224,-10 C353.234631,-10 458,94.7653685 458,224 C458,353.234631 353.234631,458 224,458 L214,458 L214,448 Z" id="Oval-5-Copy-3" stroke="#FFFFFF" stroke-width="20" fill="#FFFFFF" transform="translate(336.000000, 224.000000) rotate(270.000000) translate(-336.000000, -224.000000) "></path>
                <path d="M-10,336 C-10,285.550377 -10,285.550377 -10,244.318667 C-10,229.33713 -10,229.33713 -10,213.913404 C-10,137.548418 -10,137.548418 -10,4.04998085e-13 L-10,-10 L0,-10 C191.090523,-10 346,144.909477 346,336 L346,346 L336,346 C233.960237,346 233.960237,346 177.083566,346 C155.464683,346 155.464683,346 131.365634,346 C81.276874,346 81.276874,346 0,346 L-10,346 L-10,336 Z" id="Oval-5-Copy-7" stroke="#FFFFFF" stroke-width="20" fill="#FFFFFF" transform="translate(168.000000, 168.000000) scale(-1, 1) translate(-168.000000, -168.000000) "></path>
                <path d="M336,560 C459.711784,560 560,459.711784 560,336 C560,212.288216 459.711784,112 336,112 C336,244.139605 336,485.878604 336,560 Z" id="Oval-5" fill-opacity="0.5" fill="#00B3AC"></path>
                <path d="M280,616 C341.855892,616 392,565.855892 392,504 C392,442.144108 341.855892,392 280,392 C280,458.069803 280,578.939302 280,616 Z" id="Oval-5-Copy-10" fill-opacity="0.5" fill="#00B3AC" transform="translate(336.000000, 504.000000) rotate(90.000000) translate(-336.000000, -504.000000) "></path>
                <circle id="Oval-9" fill-opacity="0.5" fill="#00B3AC" cx="336" cy="448" r="112"></circle>
                <path d="M280.001818,504 C310.929764,504 336.001818,478.927946 336.001818,448 C336.001818,417.072054 310.929764,392 280.001818,392 C280.001818,425.034901 280.001818,485.469651 280.001818,504 Z" id="Oval-5-Copy-10" fill-opacity="0.5" fill="#00B3AC" transform="translate(308.001818, 448.000000) scale(-1, 1) translate(-308.001818, -448.000000) "></path>
                <path d="M308,532 C338.927946,532 364,506.927946 364,476 C364,445.072054 338.927946,420 308,420 C308,453.034901 308,513.469651 308,532 Z" id="Oval-5-Copy-12" fill-opacity="0.5" fill="#00B3AC" transform="translate(336.000000, 476.000000) scale(1, -1) rotate(270.000000) translate(-336.000000, -476.000000) "></path>
                <path d="M336,448.001818 C351.463973,448.001818 364,435.465791 364,420.001818 C364,404.537845 351.463973,392.001818 336,392.001818 C336,408.519269 336,438.736644 336,448.001818 Z" id="Oval-5-Copy-10" fill-opacity="0.5" fill="#00B3AC"></path>
                <path d="M322,462.001818 C337.463973,462.001818 350,449.465791 350,434.001818 C350,418.537845 337.463973,406.001818 322,406.001818 C322,422.519269 322,452.736644 322,462.001818 Z" id="Oval-5-Copy-12" fill-opacity="0.5" fill="#00B3AC" transform="translate(336.000000, 434.001818) scale(1, -1) rotate(270.000000) translate(-336.000000, -434.001818) "></path>
                <path d="M336,336 C336,196.47963 336,84.4796296 336,0 C150.432324,0 0,150.432324 0,336 C86.4046296,336 198.40463,336 336,336 Z" id="Oval-2-Copy" fill-opacity="0.5" fill="#00B3AC"></path>
                <path d="M224,448 C347.711784,448 448,347.711784 448,224 C448,100.288216 347.711784,1.24344979e-14 224,0 C224,132.139605 224,373.878604 224,448 Z" id="Oval-5-Copy-3" fill-opacity="0.5" fill="#00B3AC" transform="translate(336.000000, 224.000000) rotate(270.000000) translate(-336.000000, -224.000000) "></path>
                <circle id="Oval-7-Copy" fill="#FFFFFF" cx="133.7" cy="252" r="56"></circle>
                <circle id="Oval-7-Copy-2" fill="#303942" cx="133.7" cy="252" r="28"></circle>
            </g>
        </g>
    </g>
</svg>