 <svg class="blogmate_logo_svg" version="1.1" id="Layer_1" xmlns="http://www.w3.org/2000/svg" xmlns:xlink="http://www.w3.org/1999/xlink" x="0px" y="0px"
     width="535px" height="65px" viewBox="0 0 535 65" enable-background="new 0 0 535 65" xml:space="preserve">
  <g fill="#A1ACB3">
    <polygon class="blogmate_logo_e" points="535.107,33.623 509.047,33.623 509.047,58.852 535.107,58.852 535.107,63.334 504.566,63.334
      504.566,2.916 535.107,2.916 535.107,7.396 509.047,7.396 509.047,29.142 535.107,29.142 "/>
    <polygon class="blogmate_logo_t" points="466.895,63.334 466.895,7.396 446.146,7.396 446.146,2.916 491.793,2.916 491.793,7.396
      471.377,7.396 471.377,63.334 "/>
    <path class="blogmate_logo_a" d="M417.051,0.589l29.299,62.745l-4.734,0.079l-10.457-21.908h-28.301L392.4,63.414l-4.686,0.002L417.051,0.589
      z M416.967,11.129l-12.033,25.895h24.15L416.967,11.129z"/>
    <polygon class="blogmate_logo_m" points="376.07,1.004 376.07,63.416 371.588,63.416 371.588,13.288 346.525,43.248 321.377,13.288
      321.377,63.416 316.896,63.416 316.896,1.004 346.525,36.276 "/>
    <path class="blogmate_logo_g" d="M276.906,59.929c6.473,0,12.863-2.405,17.76-6.64V41.505h-17.76v-4.481h22.242v18.258
      c-5.893,5.81-13.859,9.129-22.16,9.129c-18.922,0-32.034-15.021-32.034-31.538c0-18.923,15.021-32.035,31.536-32.035
      c9.295,0,17.264,3.652,22.906,9.378l-3.154,3.154c-4.812-4.896-11.617-8.05-19.752-8.05c-14.439,0-27.055,11.619-27.055,27.47
      C249.436,47.314,261.055,59.929,276.906,59.929"/>
    <path class="blogmate_logo_o" d="M202.634,0.839c18.922,0,32.035,15.022,32.035,31.537c0,18.923-15.021,32.035-31.537,32.035
      c-18.923,0-32.035-15.021-32.035-31.537C171.097,13.951,186.118,0.839,202.634,0.839 M202.634,5.32
      c-13.859,0-27.056,10.955-27.056,27.471c0,13.859,10.955,27.138,27.471,27.138c13.942,0,27.139-10.955,27.139-27.303
      C230.188,17.686,218.486,5.32,202.634,5.32"/>
    <polygon class="blogmate_logo_l" points="130.123,2.957 134.605,2.957 134.605,58.893 164.475,58.893 164.475,63.375 130.123,63.375 "/>
    <path class="blogmate_logo_b" d="M113.125,45.906c0,10.872-8.464,17.429-16.847,17.429H78.85V2.916h15.106
      c9.876,0,15.685,7.718,15.685,15.104c0,5.312-1.992,7.801-2.988,8.881c-0.913,0.912-3.984,2.821-5.312,3.07
      C103.915,30.219,113.125,35.449,113.125,45.906 M96.195,29.141c4.647-0.83,8.963-4.896,8.963-11.038
      c0-5.311-4.316-10.706-11.203-10.706H83.332v21.744H96.195z M108.645,45.989c0-5.811-4.232-12.366-11.37-12.366H83.332v25.229
      h12.864C102.336,58.852,108.645,54.039,108.645,45.989"/>
  </g>
    <polygon fill="#61A5C7" class="blogmate_logo_icon" points="50.383,2.916 50.383,37.524 39.227,31.343 28.07,37.524 28.07,2.916 -0.107,2.916 -0.107,63.334
      55.893,63.334 55.893,2.916 "/>
  </svg>