<svg class="blogmate_tagline_svg" version="1.1" id="Layer_1" xmlns="http://www.w3.org/2000/svg" xmlns:xlink="http://www.w3.org/1999/xlink" x="0px" y="0px" viewBox="0 0 375 60" enable-background="new 0 0 375 60" xml:space="preserve">
<rect x="0.676" y="1.635" fill="#FCF4A9" width="201.787" height="56.729"/>
<path fill="#545c5f" d="M28.695,43.486v-1.762h0.553c0.478,0,0.926-0.035,1.343-0.102c0.417-0.07,0.778-0.209,1.085-0.422
  c0.308-0.212,0.554-0.515,0.739-0.912c0.183-0.396,0.276-0.922,0.276-1.576v-9.838H19.043v9.838c0,0.654,0.091,1.181,0.276,1.576
  c0.184,0.397,0.43,0.7,0.737,0.912c0.308,0.213,0.673,0.352,1.097,0.422c0.424,0.066,0.867,0.102,1.332,0.102h0.554v1.762H10.824
  v-1.762h0.533c0.478,0,0.925-0.035,1.343-0.102c0.416-0.07,0.782-0.209,1.096-0.422c0.314-0.212,0.56-0.515,0.738-0.912
  c0.177-0.396,0.265-0.922,0.265-1.576V18.135c0-0.614-0.091-1.11-0.276-1.486c-0.184-0.375-0.433-0.665-0.748-0.87
  c-0.314-0.206-0.68-0.338-1.097-0.4c-0.416-0.061-0.856-0.092-1.321-0.092h-0.533v-1.763h12.215v1.763h-0.554
  c-0.465,0-0.908,0.033-1.332,0.102c-0.424,0.068-0.789,0.208-1.097,0.42c-0.307,0.212-0.553,0.516-0.737,0.912
  c-0.185,0.396-0.276,0.922-0.276,1.578v8.484h13.648v-8.484c0-0.656-0.093-1.182-0.276-1.578c-0.185-0.396-0.431-0.7-0.739-0.912
  c-0.307-0.212-0.668-0.352-1.085-0.42c-0.417-0.069-0.865-0.102-1.343-0.102h-0.553v-1.763H40.91v1.763h-0.533
  c-0.479,0-0.926,0.033-1.343,0.102c-0.417,0.068-0.782,0.208-1.097,0.42c-0.314,0.212-0.56,0.516-0.737,0.912
  c-0.178,0.396-0.267,0.922-0.267,1.578v20.617c0,0.614,0.093,1.111,0.277,1.486c0.184,0.376,0.434,0.659,0.748,0.85
  c0.314,0.192,0.679,0.317,1.096,0.381c0.417,0.061,0.858,0.092,1.323,0.092h0.533v1.762H28.695z"/>
<path fill="#545c5f" d="M44.024,41.724c0.465,0,0.906-0.03,1.323-0.092c0.416-0.062,0.782-0.188,1.096-0.38s0.564-0.473,0.747-0.85
  c0.185-0.375,0.277-0.871,0.277-1.486v-13.3c0-0.615-0.092-1.11-0.277-1.486c-0.183-0.375-0.433-0.666-0.747-0.87
  c-0.314-0.205-0.68-0.342-1.096-0.411c-0.417-0.068-0.858-0.102-1.323-0.102h-0.123v-1.763h7.501v17.728
  c0,0.656,0.092,1.182,0.277,1.578c0.184,0.396,0.43,0.701,0.738,0.912c0.308,0.213,0.673,0.352,1.096,0.42
  c0.423,0.068,0.868,0.103,1.333,0.103h0.552v1.763H43.471v-1.763H44.024z M46.873,14.181c0-0.493,0.062-0.902,0.185-1.23
  s0.294-0.594,0.512-0.799c0.219-0.205,0.471-0.348,0.758-0.43c0.287-0.083,0.601-0.124,0.942-0.124c0.329,0,0.636,0.041,0.922,0.124
  c0.288,0.082,0.537,0.225,0.749,0.43c0.212,0.205,0.383,0.471,0.512,0.799c0.13,0.328,0.195,0.737,0.195,1.23
  c0,0.492-0.065,0.902-0.195,1.229c-0.129,0.328-0.3,0.594-0.512,0.8c-0.212,0.204-0.461,0.351-0.749,0.44
  c-0.286,0.089-0.593,0.134-0.922,0.134c-0.341,0-0.655-0.045-0.942-0.134c-0.287-0.089-0.539-0.236-0.758-0.44
  c-0.218-0.206-0.389-0.472-0.512-0.8C46.935,15.083,46.873,14.673,46.873,14.181"/>
<path fill="#545c5f" d="M78.004,21.865c0,0.301-0.045,0.584-0.134,0.851c-0.089,0.266-0.222,0.499-0.4,0.696
  c-0.177,0.198-0.406,0.356-0.686,0.472c-0.28,0.116-0.611,0.174-0.994,0.174c0-0.164-0.021-0.327-0.062-0.491
  c-0.041-0.165-0.112-0.318-0.215-0.462c-0.102-0.143-0.243-0.26-0.421-0.348c-0.177-0.089-0.409-0.133-0.696-0.133
  c-0.355,0-0.676,0.041-0.963,0.122c-0.287,0.082-0.567,0.212-0.841,0.39c0.479,0.587,0.872,1.281,1.179,2.08s0.461,1.8,0.461,3.002
  c0,1.039-0.157,1.999-0.472,2.879c-0.313,0.882-0.781,1.643-1.403,2.285S70.95,34.527,70,34.889c-0.95,0.363-2.06,0.545-3.33,0.545
  c-0.164,0-0.349-0.006-0.553-0.012c-0.205-0.007-0.41-0.014-0.615-0.021c-0.205-0.006-0.397-0.021-0.574-0.04
  c-0.177-0.02-0.321-0.038-0.43-0.051c-0.274,0.136-0.534,0.285-0.78,0.449c-0.246,0.166-0.461,0.35-0.645,0.555
  c-0.185,0.205-0.331,0.438-0.441,0.695c-0.109,0.261-0.164,0.547-0.164,0.861c0,0.342,0.066,0.614,0.195,0.82
  c0.13,0.205,0.311,0.365,0.544,0.482c0.232,0.114,0.508,0.189,0.83,0.225c0.321,0.033,0.665,0.05,1.035,0.05h4.754
  c1.258,0,2.323,0.158,3.197,0.472c0.875,0.314,1.588,0.75,2.142,1.303c0.552,0.553,0.956,1.216,1.209,1.986
  c0.253,0.773,0.379,1.61,0.379,2.51c0,1.203-0.222,2.289-0.666,3.26s-1.123,1.795-2.039,2.47c-0.917,0.677-2.074,1.199-3.474,1.567
  c-1.401,0.369-3.05,0.555-4.949,0.555c-2.924,0-5.11-0.54-6.558-1.62s-2.173-2.582-2.173-4.509c0-0.819,0.144-1.536,0.431-2.151
  c0.287-0.616,0.673-1.141,1.158-1.577c0.484-0.438,1.041-0.793,1.67-1.066c0.628-0.273,1.291-0.471,1.988-0.596
  c-0.287-0.123-0.567-0.287-0.841-0.49c-0.272-0.205-0.519-0.451-0.737-0.738c-0.219-0.286-0.396-0.615-0.533-0.984
  c-0.137-0.369-0.205-0.779-0.205-1.229c0-0.833,0.219-1.555,0.656-2.163c0.437-0.606,1.134-1.198,2.09-1.772
  c-0.601-0.246-1.137-0.584-1.608-1.015c-0.472-0.43-0.869-0.921-1.189-1.476c-0.321-0.553-0.567-1.157-0.738-1.813
  c-0.171-0.655-0.256-1.332-0.256-2.029c0-1.216,0.164-2.302,0.492-3.259c0.327-0.955,0.819-1.769,1.475-2.438
  c0.656-0.67,1.475-1.182,2.46-1.537c0.983-0.355,2.137-0.533,3.463-0.533c0.505,0,1.004,0.038,1.496,0.113
  c0.492,0.074,0.947,0.177,1.362,0.307c0.418,0.13,0.793,0.277,1.128,0.441c0.335,0.164,0.604,0.334,0.809,0.512
  c0.206-0.219,0.445-0.461,0.718-0.728c0.273-0.266,0.58-0.512,0.921-0.737c0.343-0.226,0.715-0.414,1.118-0.564
  c0.403-0.15,0.837-0.225,1.301-0.225c0.424,0,0.789,0.058,1.097,0.174c0.307,0.116,0.563,0.273,0.768,0.471
  c0.205,0.198,0.359,0.431,0.461,0.697C77.952,21.301,78.004,21.578,78.004,21.865 M60.297,47.176c0,0.614,0.082,1.188,0.246,1.722
  c0.164,0.532,0.45,0.989,0.86,1.373c0.409,0.383,0.964,0.683,1.66,0.901c0.697,0.219,1.578,0.327,2.644,0.327
  c1.503,0,2.742-0.125,3.719-0.38c0.978-0.252,1.752-0.604,2.327-1.055c0.573-0.45,0.976-0.986,1.209-1.608
  c0.232-0.622,0.348-1.301,0.348-2.038c0-0.644-0.093-1.173-0.276-1.59c-0.186-0.417-0.458-0.742-0.82-0.982
  c-0.363-0.239-0.81-0.407-1.343-0.502c-0.532-0.097-1.148-0.145-1.844-0.145h-4.12c-0.587,0-1.157,0.051-1.711,0.154
  c-0.553,0.103-1.045,0.298-1.476,0.584c-0.43,0.287-0.775,0.689-1.034,1.209C60.426,45.665,60.297,46.342,60.297,47.176
   M62.735,28.218c0,1.79,0.297,3.102,0.892,3.935c0.594,0.834,1.567,1.25,2.92,1.25c0.683,0,1.26-0.103,1.732-0.308
  c0.471-0.205,0.857-0.52,1.158-0.942c0.3-0.423,0.515-0.967,0.646-1.628c0.13-0.664,0.194-1.453,0.194-2.368
  c0-1.886-0.287-3.279-0.86-4.181c-0.575-0.902-1.544-1.352-2.911-1.352c-1.353,0-2.319,0.461-2.9,1.383S62.735,26.333,62.735,28.218
  "/>
<path fill="#545c5f" d="M90.566,41.725v1.762H79.273v-1.762h0.328c0.479,0,0.926-0.035,1.343-0.103
  c0.416-0.069,0.779-0.209,1.086-0.42c0.307-0.213,0.554-0.517,0.737-0.913c0.185-0.396,0.278-0.922,0.278-1.577V16.209
  c0-0.615-0.093-1.11-0.278-1.486c-0.183-0.375-0.432-0.666-0.747-0.871c-0.314-0.205-0.681-0.338-1.097-0.399
  c-0.417-0.062-0.857-0.093-1.322-0.093h-0.328v-1.762h7.728v9.222c0,0.383-0.008,0.782-0.022,1.199
  c-0.014,0.416-0.034,0.803-0.061,1.158c-0.028,0.41-0.054,0.813-0.081,1.209h0.204c1.256-2.541,3.313-3.812,6.169-3.812
  c1.188,0,2.244,0.16,3.166,0.482c0.922,0.32,1.698,0.813,2.326,1.475c0.629,0.663,1.106,1.513,1.434,2.551
  c0.328,1.039,0.492,2.276,0.492,3.71v9.92c0,0.655,0.083,1.181,0.246,1.577c0.164,0.396,0.389,0.7,0.676,0.913
  c0.287,0.211,0.629,0.351,1.025,0.42c0.396,0.067,0.827,0.103,1.292,0.103h0.122v1.762h-7.296V28.997
  c0-0.915-0.082-1.728-0.245-2.439c-0.164-0.71-0.428-1.311-0.789-1.803c-0.363-0.492-0.837-0.864-1.425-1.117
  c-0.587-0.253-1.305-0.379-2.151-0.379c-0.874,0-1.629,0.16-2.265,0.482c-0.636,0.321-1.161,0.778-1.578,1.373
  c-0.417,0.594-0.728,1.311-0.933,2.152c-0.205,0.84-0.306,1.772-0.306,2.797v8.853c0,0.615,0.091,1.111,0.275,1.486
  c0.185,0.376,0.435,0.658,0.749,0.85c0.313,0.192,0.68,0.318,1.096,0.381c0.417,0.061,0.857,0.092,1.322,0.092H90.566z"/>
<path fill="#545c5f" d="M106.244,41.725c0.478,0,0.926-0.035,1.342-0.103c0.417-0.069,0.779-0.209,1.087-0.42
  c0.307-0.213,0.552-0.517,0.737-0.913s0.277-0.922,0.277-1.577V16.209c0-0.615-0.092-1.11-0.277-1.486
  c-0.185-0.375-0.434-0.666-0.748-0.871s-0.68-0.338-1.097-0.399c-0.416-0.062-0.857-0.093-1.321-0.093h-0.533v-1.762h7.931v27.114
  c0,0.655,0.089,1.181,0.266,1.577c0.178,0.396,0.424,0.7,0.737,0.913c0.316,0.211,0.681,0.351,1.098,0.42
  c0.417,0.067,0.864,0.103,1.342,0.103h0.533v1.762h-11.907v-1.762H106.244z"/>
<path fill="#545c5f" d="M119.687,41.724c0.465,0,0.906-0.03,1.323-0.092s0.782-0.188,1.096-0.38c0.315-0.191,0.564-0.473,0.748-0.85
  c0.185-0.375,0.277-0.871,0.277-1.486v-13.3c0-0.615-0.092-1.11-0.277-1.486c-0.184-0.375-0.433-0.666-0.748-0.87
  c-0.314-0.205-0.679-0.342-1.096-0.411c-0.417-0.068-0.858-0.102-1.323-0.102h-0.122v-1.763h7.501v17.728
  c0,0.656,0.091,1.182,0.277,1.578c0.184,0.396,0.43,0.701,0.737,0.912c0.308,0.213,0.673,0.352,1.097,0.42
  c0.422,0.068,0.867,0.103,1.332,0.103h0.553v1.763h-11.927v-1.763H119.687z M122.536,14.181c0-0.493,0.062-0.902,0.185-1.23
  s0.294-0.594,0.512-0.799c0.219-0.205,0.472-0.348,0.759-0.43c0.287-0.083,0.601-0.124,0.942-0.124c0.328,0,0.635,0.041,0.922,0.124
  c0.287,0.082,0.536,0.225,0.748,0.43c0.212,0.205,0.383,0.471,0.512,0.799c0.131,0.328,0.195,0.737,0.195,1.23
  c0,0.492-0.064,0.902-0.195,1.229c-0.129,0.328-0.3,0.594-0.512,0.8c-0.212,0.204-0.461,0.351-0.748,0.44
  c-0.287,0.089-0.594,0.134-0.922,0.134c-0.341,0-0.655-0.045-0.942-0.134c-0.287-0.089-0.54-0.236-0.759-0.44
  c-0.218-0.206-0.389-0.472-0.512-0.8C122.598,15.083,122.536,14.673,122.536,14.181"/>
<path fill="#545c5f" d="M153.667,21.865c0,0.301-0.044,0.584-0.133,0.851c-0.089,0.266-0.223,0.499-0.401,0.696
  c-0.176,0.198-0.406,0.356-0.686,0.472c-0.279,0.116-0.611,0.174-0.993,0.174c0-0.164-0.021-0.327-0.063-0.491
  c-0.04-0.165-0.111-0.318-0.214-0.462c-0.103-0.143-0.243-0.26-0.421-0.348c-0.177-0.089-0.409-0.133-0.697-0.133
  c-0.354,0-0.676,0.041-0.963,0.122c-0.286,0.082-0.567,0.212-0.84,0.39c0.479,0.587,0.871,1.281,1.178,2.08
  c0.309,0.799,0.462,1.8,0.462,3.002c0,1.039-0.157,1.999-0.472,2.879c-0.314,0.882-0.782,1.643-1.403,2.285
  c-0.622,0.643-1.408,1.145-2.357,1.506c-0.95,0.363-2.06,0.545-3.33,0.545c-0.165,0-0.348-0.006-0.553-0.012
  c-0.206-0.007-0.41-0.014-0.616-0.021c-0.204-0.006-0.396-0.021-0.574-0.04c-0.177-0.02-0.32-0.038-0.43-0.051
  c-0.273,0.136-0.533,0.285-0.779,0.449c-0.245,0.166-0.461,0.35-0.645,0.555c-0.185,0.205-0.331,0.438-0.441,0.695
  c-0.109,0.261-0.164,0.547-0.164,0.861c0,0.342,0.065,0.614,0.196,0.82c0.129,0.205,0.31,0.365,0.542,0.482
  c0.232,0.114,0.509,0.189,0.83,0.225c0.321,0.033,0.667,0.05,1.035,0.05h4.755c1.257,0,2.322,0.158,3.197,0.472
  c0.874,0.314,1.588,0.75,2.141,1.303c0.553,0.553,0.957,1.216,1.209,1.986c0.254,0.773,0.38,1.61,0.38,2.51
  c0,1.203-0.222,2.289-0.666,3.26c-0.445,0.971-1.124,1.795-2.04,2.47c-0.915,0.677-2.073,1.199-3.473,1.567
  c-1.401,0.369-3.05,0.555-4.95,0.555c-2.923,0-5.11-0.54-6.558-1.62c-1.448-1.08-2.173-2.582-2.173-4.509
  c0-0.819,0.144-1.536,0.431-2.151c0.287-0.616,0.673-1.141,1.158-1.577c0.485-0.438,1.042-0.793,1.67-1.066
  c0.629-0.273,1.292-0.471,1.988-0.596c-0.286-0.123-0.567-0.287-0.84-0.49c-0.273-0.205-0.519-0.451-0.738-0.738
  c-0.219-0.286-0.396-0.615-0.532-0.984c-0.137-0.369-0.205-0.779-0.205-1.229c0-0.833,0.219-1.555,0.655-2.163
  c0.438-0.606,1.134-1.198,2.091-1.772c-0.602-0.246-1.138-0.584-1.609-1.015c-0.472-0.43-0.868-0.921-1.189-1.476
  c-0.321-0.553-0.567-1.157-0.737-1.813c-0.171-0.655-0.257-1.332-0.257-2.029c0-1.216,0.164-2.302,0.492-3.259
  c0.328-0.955,0.819-1.769,1.476-2.438c0.656-0.67,1.475-1.182,2.459-1.537c0.984-0.355,2.138-0.533,3.464-0.533
  c0.504,0,1.003,0.038,1.496,0.113c0.491,0.074,0.946,0.177,1.363,0.307c0.416,0.13,0.792,0.277,1.127,0.441
  c0.335,0.164,0.604,0.334,0.809,0.512c0.205-0.219,0.445-0.461,0.717-0.728c0.274-0.266,0.581-0.512,0.923-0.737
  c0.341-0.226,0.714-0.414,1.116-0.564c0.404-0.15,0.837-0.225,1.302-0.225c0.424,0,0.789,0.058,1.097,0.174
  c0.306,0.116,0.563,0.273,0.767,0.471c0.205,0.198,0.36,0.431,0.462,0.697C153.615,21.301,153.667,21.578,153.667,21.865
   M135.96,47.176c0,0.614,0.082,1.188,0.246,1.722c0.164,0.532,0.451,0.989,0.861,1.373c0.41,0.383,0.963,0.683,1.659,0.901
  c0.697,0.219,1.579,0.327,2.645,0.327c1.502,0,2.742-0.125,3.719-0.38c0.977-0.252,1.752-0.604,2.326-1.055
  c0.574-0.45,0.977-0.986,1.21-1.608c0.231-0.622,0.348-1.301,0.348-2.038c0-0.644-0.093-1.173-0.277-1.59
  c-0.185-0.417-0.458-0.742-0.82-0.982c-0.362-0.239-0.809-0.407-1.342-0.502c-0.533-0.097-1.148-0.145-1.845-0.145h-4.119
  c-0.588,0-1.157,0.051-1.711,0.154c-0.554,0.103-1.045,0.298-1.476,0.584c-0.43,0.287-0.775,0.689-1.035,1.209
  C136.089,45.665,135.96,46.342,135.96,47.176 M138.398,28.218c0,1.79,0.298,3.102,0.893,3.935c0.593,0.834,1.567,1.25,2.92,1.25
  c0.682,0,1.26-0.103,1.732-0.308c0.471-0.205,0.856-0.52,1.157-0.942c0.301-0.423,0.517-0.967,0.646-1.628
  c0.13-0.664,0.195-1.453,0.195-2.368c0-1.886-0.287-3.279-0.861-4.181c-0.575-0.902-1.544-1.352-2.911-1.352
  c-1.352,0-2.319,0.461-2.9,1.383C138.689,24.929,138.398,26.333,138.398,28.218"/>
<path fill="#545c5f" d="M166.23,41.725v1.762h-11.292v-1.762h0.327c0.478,0,0.926-0.035,1.343-0.103
  c0.417-0.069,0.778-0.209,1.086-0.42c0.307-0.213,0.553-0.517,0.737-0.913c0.185-0.396,0.278-0.922,0.278-1.577V16.209
  c0-0.615-0.093-1.11-0.278-1.486c-0.184-0.375-0.433-0.666-0.748-0.871c-0.313-0.205-0.68-0.338-1.097-0.399
  c-0.416-0.062-0.857-0.093-1.321-0.093h-0.327v-1.762h7.726v9.222c0,0.383-0.007,0.782-0.021,1.199
  c-0.014,0.416-0.034,0.803-0.061,1.158c-0.028,0.41-0.055,0.813-0.082,1.209h0.205c1.255-2.541,3.313-3.812,6.169-3.812
  c1.188,0,2.244,0.16,3.166,0.482c0.921,0.32,1.697,0.813,2.325,1.475c0.63,0.663,1.107,1.513,1.434,2.551
  c0.329,1.039,0.494,2.276,0.494,3.71v9.92c0,0.655,0.081,1.181,0.246,1.577c0.163,0.396,0.388,0.7,0.674,0.913
  c0.288,0.211,0.63,0.351,1.026,0.42c0.395,0.067,0.827,0.103,1.292,0.103h0.122v1.762h-7.297V28.997c0-0.915-0.08-1.728-0.245-2.439
  c-0.164-0.71-0.427-1.311-0.788-1.803c-0.364-0.492-0.838-0.864-1.425-1.117c-0.588-0.253-1.306-0.379-2.151-0.379
  c-0.875,0-1.63,0.16-2.266,0.482c-0.635,0.321-1.161,0.778-1.578,1.373c-0.416,0.594-0.728,1.311-0.933,2.152
  c-0.204,0.84-0.306,1.772-0.306,2.797v8.853c0,0.615,0.091,1.111,0.276,1.486c0.185,0.376,0.435,0.658,0.748,0.85
  c0.314,0.192,0.681,0.318,1.097,0.381c0.417,0.061,0.857,0.092,1.322,0.092H166.23z"/>
<path fill="#545c5f" d="M191.949,41.684c0.506,0,0.971-0.027,1.395-0.082c0.423-0.055,0.854-0.123,1.291-0.205v1.845
  c-0.179,0.082-0.41,0.163-0.697,0.245s-0.598,0.154-0.933,0.216c-0.334,0.062-0.687,0.108-1.056,0.144s-0.717,0.051-1.044,0.051
  c-1.066,0-1.982-0.113-2.747-0.338c-0.766-0.226-1.393-0.592-1.885-1.098c-0.492-0.505-0.858-1.174-1.097-2.007
  c-0.239-0.834-0.359-1.853-0.359-3.056V23.382h-3.197v-1.681c0.506,0,1.063-0.102,1.671-0.307c0.608-0.205,1.144-0.546,1.608-1.024
  c0.479-0.52,0.865-1.138,1.159-1.855c0.292-0.717,0.549-1.616,0.767-2.695h1.927v5.164h5.494v2.398h-5.494v14.139
  c0,1.436,0.291,2.488,0.872,3.158C190.204,41.348,190.98,41.684,191.949,41.684"/>
<path fill="#545c5f" d="M217.629,41.684c0.505,0,0.97-0.027,1.393-0.082c0.424-0.055,0.855-0.123,1.292-0.205v1.845
  c-0.178,0.082-0.409,0.163-0.698,0.245c-0.285,0.082-0.597,0.154-0.931,0.216c-0.335,0.062-0.688,0.108-1.056,0.144
  c-0.369,0.035-0.717,0.051-1.045,0.051c-1.065,0-1.981-0.113-2.747-0.338c-0.765-0.226-1.394-0.592-1.885-1.098
  c-0.492-0.505-0.857-1.174-1.097-2.007c-0.239-0.834-0.358-1.853-0.358-3.056V23.382h-3.196v-1.681c0.504,0,1.061-0.102,1.669-0.307
  c0.607-0.205,1.145-0.546,1.609-1.024c0.478-0.52,0.862-1.138,1.157-1.855c0.294-0.717,0.55-1.616,0.769-2.695h1.926v5.164h5.493
  v2.398h-5.493v14.139c0,1.436,0.291,2.488,0.871,3.158C215.883,41.348,216.658,41.684,217.629,41.684"/>
<path fill="#545c5f" d="M233.327,41.725v1.762h-11.292v-1.762h0.328c0.478,0,0.926-0.035,1.343-0.103
  c0.416-0.069,0.777-0.209,1.085-0.42c0.307-0.213,0.554-0.517,0.738-0.913s0.276-0.922,0.276-1.577V16.209
  c0-0.615-0.092-1.11-0.276-1.486c-0.185-0.375-0.435-0.666-0.748-0.871c-0.314-0.205-0.68-0.338-1.098-0.399
  c-0.417-0.062-0.856-0.093-1.32-0.093h-0.328v-1.762h7.726v9.222c0,0.383-0.008,0.782-0.021,1.199
  c-0.016,0.416-0.034,0.803-0.062,1.158c-0.027,0.41-0.055,0.813-0.082,1.209h0.205c1.257-2.541,3.313-3.812,6.169-3.812
  c1.188,0,2.244,0.16,3.167,0.482c0.92,0.32,1.696,0.813,2.325,1.475c0.628,0.663,1.106,1.513,1.435,2.551
  c0.326,1.039,0.492,2.276,0.492,3.71v9.92c0,0.655,0.082,1.181,0.245,1.577c0.164,0.396,0.39,0.7,0.677,0.913
  c0.286,0.211,0.628,0.351,1.024,0.42c0.396,0.067,0.826,0.103,1.291,0.103h0.123v1.762h-7.296V28.997
  c0-0.915-0.082-1.728-0.245-2.439c-0.164-0.71-0.428-1.311-0.789-1.803c-0.363-0.492-0.838-0.864-1.425-1.117
  s-1.305-0.379-2.151-0.379c-0.874,0-1.63,0.16-2.265,0.482c-0.636,0.321-1.161,0.778-1.579,1.373
  c-0.416,0.594-0.728,1.311-0.932,2.152c-0.205,0.84-0.308,1.772-0.308,2.797v8.853c0,0.615,0.092,1.111,0.276,1.486
  c0.186,0.376,0.435,0.658,0.749,0.85c0.312,0.192,0.68,0.318,1.097,0.381c0.415,0.061,0.856,0.092,1.32,0.092H233.327z"/>
<path fill="#545c5f" d="M259.969,43.896c-1.517,0-2.881-0.255-4.089-0.769c-1.209-0.512-2.229-1.26-3.064-2.243
  c-0.833-0.983-1.472-2.188-1.916-3.617c-0.444-1.428-0.665-3.05-0.665-4.868c0-3.921,0.806-6.872,2.418-8.853
  c1.611-1.981,3.906-2.971,6.886-2.971c1.352,0,2.567,0.212,3.648,0.635c1.078,0.424,1.994,1.056,2.745,1.895
  c0.752,0.841,1.329,1.887,1.733,3.137c0.401,1.249,0.604,2.701,0.604,4.354v1.927h-13.979c0.027,1.53,0.182,2.847,0.462,3.944
  c0.28,1.1,0.684,2.006,1.21,2.716c0.525,0.71,1.17,1.233,1.936,1.567c0.765,0.336,1.646,0.502,2.644,0.502
  c0.725,0,1.397-0.081,2.019-0.245c0.622-0.163,1.186-0.384,1.691-0.655c0.505-0.273,0.952-0.584,1.342-0.934
  c0.39-0.348,0.707-0.713,0.953-1.096c0.19,0.082,0.372,0.252,0.544,0.512c0.17,0.26,0.256,0.568,0.256,0.923
  c0,0.423-0.151,0.878-0.452,1.362c-0.3,0.485-0.757,0.933-1.373,1.343c-0.614,0.409-1.383,0.752-2.305,1.024
  C262.295,43.76,261.212,43.896,259.969,43.896 M259.456,22.829c-1.558,0-2.757,0.632-3.597,1.896
  c-0.84,1.263-1.335,3.111-1.486,5.544h9.653c0-1.107-0.082-2.118-0.246-3.034c-0.164-0.915-0.424-1.701-0.779-2.357
  c-0.354-0.655-0.822-1.16-1.404-1.516C261.017,23.007,260.304,22.829,259.456,22.829"/>
<path fill="#545c5f" d="M301.264,21.107l4.201,12.439c0.164,0.507,0.338,1.049,0.521,1.63c0.186,0.581,0.359,1.155,0.523,1.723
  c0.164,0.566,0.314,1.103,0.451,1.607c0.137,0.506,0.238,0.936,0.307,1.292h0.123c0.123-0.696,0.32-1.555,0.594-2.571
  c0.273-1.019,0.623-2.203,1.047-3.557l2.09-6.763c0.109-0.355,0.201-0.734,0.277-1.137c0.074-0.404,0.111-0.721,0.111-0.953
  c0-0.725-0.229-1.25-0.688-1.578c-0.457-0.328-1.156-0.492-2.1-0.492h-0.287v-1.763h8.977v1.763h-0.533
  c-0.408,0-0.764,0.041-1.064,0.123c-0.303,0.082-0.57,0.242-0.811,0.481c-0.238,0.239-0.461,0.57-0.666,0.994
  c-0.205,0.424-0.41,0.984-0.615,1.68l-5.41,17.461h-3.359l-5.002-14.775l-0.758-2.767l-5.943,17.542h-3.32l-5.492-18.505
  c-0.164-0.438-0.336-0.799-0.512-1.087c-0.178-0.287-0.383-0.516-0.615-0.686c-0.232-0.171-0.5-0.29-0.799-0.359
  c-0.301-0.068-0.656-0.102-1.066-0.102h-0.123v-1.763h10.371v1.763h-0.555c-0.834,0-1.461,0.123-1.885,0.369
  c-0.424,0.245-0.635,0.71-0.635,1.393c0,0.233,0.037,0.513,0.111,0.841c0.076,0.327,0.154,0.648,0.236,0.963l1.967,7.048
  c0.137,0.508,0.281,1.06,0.432,1.662c0.148,0.6,0.289,1.199,0.42,1.793c0.129,0.594,0.248,1.149,0.359,1.668
  c0.107,0.52,0.197,0.957,0.264,1.313h0.125c0.068-0.356,0.16-0.769,0.275-1.239c0.117-0.473,0.254-0.978,0.41-1.517
  c0.158-0.54,0.324-1.09,0.504-1.651c0.176-0.559,0.355-1.093,0.531-1.597l4.365-12.687H301.264z"/>
<path fill="#545c5f" d="M329.504,43.896c-1.518,0-2.879-0.255-4.088-0.769c-1.209-0.512-2.23-1.26-3.064-2.243
  s-1.473-2.188-1.916-3.617c-0.445-1.428-0.668-3.05-0.668-4.868c0-3.921,0.809-6.872,2.42-8.853
  c1.611-1.981,3.908-2.971,6.887-2.971c1.352,0,2.568,0.212,3.648,0.635c1.078,0.424,1.994,1.056,2.744,1.895
  c0.752,0.841,1.33,1.887,1.732,3.137c0.402,1.249,0.604,2.701,0.604,4.354v1.927h-13.977c0.027,1.53,0.182,2.847,0.461,3.944
  c0.281,1.1,0.684,2.006,1.211,2.716c0.525,0.71,1.17,1.233,1.936,1.567c0.766,0.336,1.646,0.502,2.643,0.502
  c0.727,0,1.398-0.081,2.02-0.245c0.621-0.163,1.186-0.384,1.691-0.655c0.504-0.273,0.953-0.584,1.342-0.934
  c0.391-0.348,0.707-0.713,0.953-1.096c0.191,0.082,0.373,0.252,0.543,0.512c0.172,0.26,0.256,0.568,0.256,0.923
  c0,0.423-0.15,0.878-0.451,1.362c-0.301,0.485-0.758,0.933-1.373,1.343c-0.615,0.409-1.383,0.752-2.305,1.024
  C331.83,43.76,330.748,43.896,329.504,43.896 M328.992,22.829c-1.559,0-2.758,0.632-3.598,1.896
  c-0.841,1.263-1.336,3.111-1.486,5.544h9.652c0-1.107-0.082-2.118-0.244-3.034c-0.164-0.915-0.424-1.701-0.779-2.357
  c-0.355-0.655-0.822-1.16-1.404-1.516C330.553,23.007,329.838,22.829,328.992,22.829"/>
<path fill="#545c5f" d="M363.379,32.194c0,2.022-0.186,3.771-0.562,5.246s-0.926,2.692-1.65,3.647
  c-0.725,0.957-1.619,1.664-2.684,2.121c-1.066,0.459-2.289,0.688-3.668,0.688c-0.807,0-1.537-0.088-2.193-0.266
  c-0.656-0.179-1.248-0.432-1.773-0.759c-0.527-0.329-0.99-0.718-1.395-1.169c-0.402-0.451-0.754-0.949-1.055-1.496h-0.266
  l-0.738,3.279h-6.721v-1.762H341c0.479,0,0.926-0.035,1.344-0.103c0.416-0.069,0.777-0.209,1.086-0.421
  c0.307-0.212,0.553-0.516,0.736-0.912c0.186-0.396,0.277-0.922,0.277-1.576V16.209c0-0.615-0.092-1.111-0.277-1.486
  c-0.184-0.376-0.432-0.666-0.748-0.871c-0.314-0.205-0.678-0.339-1.096-0.4c-0.416-0.061-0.855-0.092-1.322-0.092h-0.326v-1.763
  h7.725v7.706c0,0.478-0.006,1.029-0.021,1.65c-0.012,0.622-0.033,1.219-0.061,1.793c-0.027,0.656-0.055,1.332-0.082,2.03h0.164
  c0.314-0.643,0.67-1.223,1.066-1.742c0.396-0.52,0.854-0.961,1.373-1.322c0.518-0.363,1.105-0.642,1.762-0.841
  c0.656-0.198,1.395-0.297,2.215-0.297c1.379,0,2.602,0.229,3.668,0.686c1.064,0.458,1.959,1.162,2.684,2.111
  c0.725,0.951,1.273,2.156,1.65,3.617C363.193,28.45,363.379,30.186,363.379,32.194 M354.096,23.259
  c-1.092,0-2.004,0.181-2.736,0.543c-0.73,0.362-1.314,0.912-1.75,1.649c-0.438,0.738-0.748,1.668-0.934,2.787
  c-0.186,1.121-0.277,2.439-0.277,3.956c0,1.462,0.092,2.753,0.277,3.873c0.186,1.121,0.498,2.063,0.943,2.829
  c0.443,0.764,1.031,1.342,1.762,1.732c0.73,0.389,1.65,0.582,2.756,0.582c0.928,0,1.719-0.193,2.367-0.582
  c0.648-0.391,1.182-0.969,1.6-1.732c0.416-0.766,0.721-1.713,0.912-2.84c0.189-1.127,0.285-2.428,0.285-3.903
  c0-1.489-0.096-2.79-0.285-3.904c-0.191-1.113-0.496-2.039-0.912-2.777c-0.418-0.738-0.957-1.291-1.619-1.66
  C355.822,23.443,355.025,23.259,354.096,23.259"/>
<path fill="#545c5f" d="M369.035,40.925c0-0.546,0.068-1.001,0.205-1.362c0.139-0.363,0.326-0.652,0.564-0.871
  s0.52-0.375,0.84-0.472c0.322-0.096,0.668-0.144,1.035-0.144c0.355,0,0.693,0.048,1.016,0.144c0.32,0.097,0.6,0.253,0.84,0.472
  s0.43,0.508,0.574,0.871c0.143,0.361,0.215,0.816,0.215,1.362c0,0.533-0.072,0.983-0.215,1.353
  c-0.145,0.369-0.334,0.662-0.574,0.881s-0.52,0.375-0.84,0.473c-0.322,0.096-0.66,0.143-1.016,0.143
  c-0.367,0-0.713-0.047-1.035-0.143c-0.32-0.098-0.602-0.254-0.84-0.473s-0.426-0.512-0.564-0.881
  C369.104,41.908,369.035,41.458,369.035,40.925"/>
</svg>