
<svg viewBox="0 0 360 360" version="1.1" xmlns="http://www.w3.org/2000/svg">
    <g id="Page-1" stroke="none" stroke-width="1" fill="none" fill-rule="evenodd">
        <g id="logo" transform="translate(-20.000000, -20.000000)" fill="#D8D8D8">
            <path d="M20,20 C119.411255,20 200,100.588745 200,200 C200,299.411255 119.411255,380 20,380 L20,320 C86.27417,320 140,266.27417 140,200 C140,133.72583 86.27417,80 20,80 L20,20 Z" id="Combined-Shape-Copy-6"></path>
            <g id="B" transform="translate(290.000000, 80.000000)">
                <path d="M45,90 C69.8528137,90 90,69.8528137 90,45 C90,20.1471863 69.8528137,0 45,0 C35.9903663,0 20.9903663,0 0,0 L0,45 L0,90 C23.3771904,90 38.3771904,90 45,90 Z" id="top"></path>
                <path d="M45,240 C69.8528137,240 90,219.852814 90,195 C90,170.147186 69.8528137,150 45,150 C35.9903663,150 20.9903663,150 0,150 L0,195 L0,240 C23.3771904,240 38.3771904,240 45,240 Z" id="bottom"></path>
            </g>
        </g>
    </g>
</svg>